<svg xmlns="http://www.w3.org/2000/svg" version="1.1" width="273px" height="118px"
    style="shape-rendering:geometricPrecision; text-rendering:geometricPrecision; image-rendering:optimizeQuality; fill-rule:evenodd; clip-rule:evenodd"
    xmlns:xlink="http://www.w3.org/1999/xlink">
    <g>
        <path style="opacity:0.959" fill="#fefffe"
            d="M 228.5,-0.5 C 231.167,-0.5 233.833,-0.5 236.5,-0.5C 245.812,7.30264 255.312,14.9693 265,22.5C 265.832,32.1839 265.665,41.8505 264.5,51.5C 260.833,49.6667 257.167,47.8333 253.5,46C 252.691,40.5829 252.191,35.0829 252,29.5C 247.952,25.7838 243.618,22.4504 239,19.5C 238.667,51.5 238.333,83.5 238,115.5C 237.283,116.044 236.783,116.711 236.5,117.5C 233.833,117.5 231.167,117.5 228.5,117.5C 227.531,116.691 226.698,115.691 226,114.5C 225.333,77.1667 225.333,39.8333 226,2.5C 227.045,1.62656 227.878,0.626561 228.5,-0.5 Z" />
    </g>
    <g>
        <path style="opacity:0.89" fill="#fefffe"
            d="M -0.5,84.5 C -0.5,83.8333 -0.5,83.1667 -0.5,82.5C 0.291077,80.5572 1.79108,79.5572 4,79.5C 8.24273,82.0369 12.7427,84.2035 17.5,86C 22.2288,86.9956 26.7288,86.4956 31,84.5C 32.9536,82.2149 32.787,80.0483 30.5,78C 22.8095,75.4593 15.1428,72.7926 7.5,70C 0.37905,63.9163 -0.287616,57.2496 5.5,50C 13.1428,46.6251 21.1428,45.6251 29.5,47C 36.1554,48.19 39.6554,52.0234 40,58.5C 38.1917,60.3959 36.025,60.8959 33.5,60C 27.4047,54.346 20.4047,53.0126 12.5,56C 10.9954,59.8831 12.3288,62.5498 16.5,64C 23.028,65.3983 29.3613,67.3983 35.5,70C 44.2308,76.9327 44.5642,84.266 36.5,92C 28.3108,94.9485 19.9775,95.2818 11.5,93C 6.55034,91.3713 2.55034,88.538 -0.5,84.5 Z" />
    </g>
    <g>
        <path style="opacity:0.889" fill="#fefffe"
            d="M 140.5,46.5 C 142.857,46.3367 145.19,46.5034 147.5,47C 148.126,47.7504 148.626,48.5838 149,49.5C 149.667,63.5 149.667,77.5 149,91.5C 148.242,93.9096 146.575,94.9096 144,94.5C 142.564,94.4411 141.231,94.1078 140,93.5C 139.183,77.7591 139.35,62.0924 140.5,46.5 Z" />
    </g>
    <g>
        <path style="opacity:0.843" fill="#fefffe"
            d="M 157.5,46.5 C 162.703,45.1891 166.036,47.0224 167.5,52C 165.12,57.6807 161.286,58.8473 156,55.5C 155.068,52.1769 155.568,49.1769 157.5,46.5 Z" />
    </g>
    <g>
        <path style="opacity:0.913" fill="#d86f3c"
            d="M 272.5,58.5 C 272.5,58.8333 272.5,59.1667 272.5,59.5C 264.156,63.0887 255.989,67.0887 248,71.5C 247.168,63.1467 247.335,54.8134 248.5,46.5C 256.527,50.5133 264.527,54.5133 272.5,58.5 Z" />
    </g>
    <g>
        <path style="opacity:0.908" fill="#fefffe"
            d="M 51.5,59.5 C 54.0444,59.1043 56.2111,59.771 58,61.5C 58.1083,68.9115 58.775,76.2448 60,83.5C 64.9538,87.6767 69.6204,87.3433 74,82.5C 75.2189,75.5789 75.8855,68.5789 76,61.5C 78.873,58.8997 81.7063,58.8997 84.5,61.5C 85.6423,71.7863 85.809,82.1196 85,92.5C 80.8821,95.5921 77.5488,94.9255 75,90.5C 70.139,94.2841 64.639,95.4507 58.5,94C 50.2529,89.6588 47.2529,82.8254 49.5,73.5C 49.6667,69.5 49.8333,65.5 50,61.5C 50.7172,60.9558 51.2172,60.2891 51.5,59.5 Z" />
    </g>
    <g>
        <path style="opacity:0.9" fill="#fefffe"
            d="M 94.5,59.5 C 98.3169,58.8258 101.15,60.1592 103,63.5C 112.114,57.8043 120.781,58.471 129,65.5C 133.56,73.1801 133.56,80.8468 129,88.5C 121.188,95.1652 112.688,96.1652 103.5,91.5C 102.67,97.1376 102.17,102.804 102,108.5C 99.7605,112.692 96.7605,113.359 93,110.5C 92.3333,94.1667 92.3333,77.8333 93,61.5C 93.7172,60.9558 94.2172,60.2891 94.5,59.5 Z M 109.5,67.5 C 120.396,67.2195 124.23,72.2195 121,82.5C 114.663,88.0407 108.663,87.7073 103,81.5C 100.746,74.5755 102.913,69.9089 109.5,67.5 Z" />
    </g>
    <g>
        <path style="opacity:0.935" fill="#fefffe"
            d="M 158.5,59.5 C 161.044,59.1043 163.211,59.771 165,61.5C 165.667,72.1667 165.667,82.8333 165,93.5C 162.333,94.8333 159.667,94.8333 157,93.5C 156.333,82.8333 156.333,72.1667 157,61.5C 157.717,60.9558 158.217,60.2891 158.5,59.5 Z" />
    </g>
    <g>
        <path style="opacity:0.897" fill="#fefffe"
            d="M 188.5,59.5 C 208.534,59.2922 215.7,68.6255 210,87.5C 205.483,92.5628 199.816,94.8961 193,94.5C 180.496,95.032 173.663,89.1986 172.5,77C 173.499,67.169 178.832,61.3356 188.5,59.5 Z M 189.5,67.5 C 201.61,67.7354 205.276,73.2354 200.5,84C 194.877,87.4419 189.377,87.2752 184,83.5C 180.717,76.1988 182.551,70.8654 189.5,67.5 Z" />
    </g>
    <g>
        <path style="opacity:0.939" fill="#fefffe"
            d="M 263.5,117.5 C 260.5,117.5 257.5,117.5 254.5,117.5C 254.013,116.527 253.513,115.527 253,114.5C 252.333,100.167 252.333,85.8333 253,71.5C 256.755,69.3725 260.588,67.3725 264.5,65.5C 265.666,81.8231 265.833,98.1565 265,114.5C 264.487,115.527 263.987,116.527 263.5,117.5 Z" />
    </g>
</svg>