<svg id="Capa_1" data-name="Capa 1" xmlns="http://www.w3.org/2000/svg" viewBox="0 0 487 130">
    <defs>
        <style>
            .cls-1 {
                fill: #9011a9;
            }

            .cls-2 {
                fill: #e6d159;
            }

            .cls-3 {
                fill: #322a6f;
            }

            .cls-4 {
                fill: #2d355a;
            }
        </style>
    </defs>
    <title>diseño web-rediseño nuevo branding-piezas</title>
    <circle class="cls-1" cx="58.94" cy="69.57" r="5.24" />
    <circle class="cls-2" cx="76.39" cy="69.57" r="5.24" />
    <circle class="cls-3" cx="93.84" cy="69.57" r="5.24" />
    <path class="cls-3"
        d="M109.42,26.27V68.35c0,.14,0,.28,0,.41a32.61,32.61,0,0,1-32.85,32.37,33.17,33.17,0,0,1-10.18-1.59.34.34,0,0,0-.38.1h0c-7.44,8.85-1.27,22.49,10.29,22.55h.27c29.94,0,54.22-23.92,54.22-53.43A53.08,53.08,0,0,0,109.42,26.27Z" />
    <path class="cls-1"
        d="M76.57,36.39a33.21,33.21,0,0,1,14.61,3.38l.23-.39c6-10.4-1.14-23.65-13.14-24-.57,0-1.13,0-1.7,0-29.95,0-54.22,23.92-54.22,53.42a53.08,53.08,0,0,0,21.37,42.5V70.67l.07.09c0-.66-.07-1.33-.07-2A32.62,32.62,0,0,1,76.57,36.39Z" />
    <path class="cls-4"
        d="M257,51.87A19.6,19.6,0,0,0,253.09,47a24.73,24.73,0,0,0-4.48-3.19,27,27,0,0,0-12.14-3.09,28.38,28.38,0,0,0-11,1.91A19,19,0,0,0,218,48.06a22.18,22.18,0,0,0-4.27,8.64,45.32,45.32,0,0,0-1.34,11.58v43.2h.15a12.09,12.09,0,0,0,12.09-12.09V88.22a13.1,13.1,0,0,0,2.16,2.38,19.12,19.12,0,0,0,5.25,3.29,21.35,21.35,0,0,0,6.17,1.34,23.56,23.56,0,0,0,11.32-2.88,21.76,21.76,0,0,0,4.16-3.14,19.5,19.5,0,0,0,3.6-4.78,27.85,27.85,0,0,0,2.58-6.9,39.89,39.89,0,0,0,1-9.36,36.27,36.27,0,0,0-1.08-9.36A28.78,28.78,0,0,0,257,51.87Zm-9.21,21.24a15.77,15.77,0,0,1-1.65,5A10.55,10.55,0,0,1,242.59,82a12.93,12.93,0,0,1-12.24,0,11.14,11.14,0,0,1-3.6-3.86,14.91,14.91,0,0,1-1.7-5,33.18,33.18,0,0,1-.41-4.94,42,42,0,0,1,.36-5.5,14.36,14.36,0,0,1,1.54-4.94,8.85,8.85,0,0,1,3.55-3.55,13,13,0,0,1,6.38-1.34,10.84,10.84,0,0,1,6.12,1.55,10.52,10.52,0,0,1,3.55,3.85,15.85,15.85,0,0,1,1.65,5,30,30,0,0,1,0,9.88Z" />
    <path class="cls-4"
        d="M311.62,51.87A19.38,19.38,0,0,0,307.71,47a24.68,24.68,0,0,0-4.47-3.19A27,27,0,0,0,291.1,40.7a28.38,28.38,0,0,0-11,1.91,19.08,19.08,0,0,0-7.46,5.45,22.32,22.32,0,0,0-4.27,8.64A45.77,45.77,0,0,0,267,68.28v43.2a12.24,12.24,0,0,0,12.25-12.24v-11a13.1,13.1,0,0,0,2.16,2.38,19.22,19.22,0,0,0,5.24,3.29,21.42,21.42,0,0,0,6.18,1.34,23.49,23.49,0,0,0,11.31-2.88,22.13,22.13,0,0,0,4.17-3.14,19.75,19.75,0,0,0,3.6-4.78,27.85,27.85,0,0,0,2.57-6.9,39.85,39.85,0,0,0,1-9.36,36.27,36.27,0,0,0-1.08-9.36A28.78,28.78,0,0,0,311.62,51.87Zm-9.21,21.24a15.5,15.5,0,0,1-1.64,5A10.72,10.72,0,0,1,297.22,82a11.15,11.15,0,0,1-15.84-3.86,14.69,14.69,0,0,1-1.7-5,31.89,31.89,0,0,1-.41-4.94,42,42,0,0,1,.36-5.5,14.36,14.36,0,0,1,1.54-4.94,8.85,8.85,0,0,1,3.55-3.55,13,13,0,0,1,6.38-1.34,10.88,10.88,0,0,1,6.12,1.55,10.7,10.7,0,0,1,3.55,3.85,15.58,15.58,0,0,1,1.64,5,30,30,0,0,1,0,9.88Z" />
    <path class="cls-4"
        d="M192,48.27a13.15,13.15,0,0,0-25,0L153.41,89.94a6.34,6.34,0,0,0,6,8.31,7.7,7.7,0,0,0,7.32-5.31l3.8-11.61h17.82l3.92,12a7.18,7.18,0,0,0,6.82,5h0a6.62,6.62,0,0,0,6.3-8.68ZM174.56,69.14l4.92-15,4.92,15Z" />
    <path class="cls-4" d="M324.22,91.93V27h5.18a2.84,2.84,0,0,1,2.84,2.84V91.93Z" />
    <path class="cls-4" d="M341.61,91.93V44.31h4.45a3.56,3.56,0,0,1,3.56,3.56V91.93Z" />
    <path class="cls-4"
        d="M376.67,91.86a9.32,9.32,0,0,1-10.06-6.38L354.74,49a3.58,3.58,0,0,1,3.41-4.69,4.07,4.07,0,0,1,3.87,2.8l13,38,13.84-37.62a4.55,4.55,0,0,1,4.32-3.13,3.3,3.3,0,0,1,2.7,1.38,3.26,3.26,0,0,1,.47,3L384.51,85.11A9.67,9.67,0,0,1,376.67,91.86Z" />
    <path class="cls-4" d="M401.37,91.93V44.31h5.09a2.93,2.93,0,0,1,2.93,2.93V91.93Z" />
    <path class="cls-4"
        d="M437.88,93a25,25,0,0,1-11.19-2.62,23.61,23.61,0,0,1-4-2.85,16.6,16.6,0,0,1-3.44-4.21A24.35,24.35,0,0,1,416.73,77a35.67,35.67,0,0,1-1-8.8,35.67,35.67,0,0,1,1-8.8A25.42,25.42,0,0,1,419.22,53a17.26,17.26,0,0,1,3.45-4.32,22.34,22.34,0,0,1,4.06-2.9,23.33,23.33,0,0,1,22.22,0A22.41,22.41,0,0,1,453,48.68,17.49,17.49,0,0,1,456.45,53,26.93,26.93,0,0,1,459,59.4a34.36,34.36,0,0,1,1,8.77A34.5,34.5,0,0,1,459,77a26.17,26.17,0,0,1-2.54,6.33A16.78,16.78,0,0,1,453,87.49a24,24,0,0,1-4.08,2.87A24.81,24.81,0,0,1,437.88,93Zm0-42.38a13.12,13.12,0,0,0-7.37,1.92,12.8,12.8,0,0,0-4.29,4.68,17.62,17.62,0,0,0-1.89,5.71,32,32,0,0,0,0,10.57,17.7,17.7,0,0,0,1.89,5.71,12.77,12.77,0,0,0,4.29,4.67,15.06,15.06,0,0,0,14.75,0,12.77,12.77,0,0,0,4.29-4.67,17.78,17.78,0,0,0,1.89-5.71,32,32,0,0,0,0-10.57,17.78,17.78,0,0,0-1.89-5.71,12.8,12.8,0,0,0-4.29-4.68A13.13,13.13,0,0,0,437.88,50.58Z" />
    <path class="cls-4" d="M345.48,40.22a3.67,3.67,0,1,1,3.67-3.67A3.68,3.68,0,0,1,345.48,40.22Z" />
    <path class="cls-4" d="M405.17,40.22a3.67,3.67,0,1,1,3.67-3.67A3.68,3.68,0,0,1,405.17,40.22Z" />
</svg>