<?xml version="1.0" encoding="UTF-8"?>
<svg version="1.1" xmlns="http://www.w3.org/2000/svg" width="1102" height="960">
<path d="M0 0 C363.66 0 727.32 0 1102 0 C1102 316.8 1102 633.6 1102 960 C738.34 960 374.68 960 0 960 C0 643.2 0 326.4 0 0 Z " fill="#6020F9" transform="translate(0,0)"/>
<path d="M0 0 C3.90892 1.7163813 6.79587847 4.21141298 10 7 C11.49810962 8.15744905 12.99667745 9.3143889 14.50537109 10.45800781 C16.17126902 11.72262373 17.82452004 13.00250573 19.4765625 14.28515625 C23.12188763 17.1044119 26.8079396 19.8673813 30.5 22.625 C36.80234807 27.33426948 43.06278871 32.09614567 49.3125 36.875 C57.10408098 42.83015736 64.95484181 48.6971325 72.87231445 54.48388672 C86.48045039 64.44135117 86.48045039 64.44135117 89 72 C89.09085515 74.50980874 89.1260815 76.99119921 89.11352539 79.50073242 C89.11367142 80.26194901 89.11381744 81.02316559 89.1139679 81.80744934 C89.11327124 84.3234848 89.10549038 86.83944622 89.09765625 89.35546875 C89.09579119 91.09995992 89.0943677 92.8444516 89.09336853 94.58894348 C89.08955026 99.18058722 89.07972584 103.77219933 89.06866455 108.36383057 C89.05843561 113.04918998 89.05386773 117.73455451 89.04882812 122.41992188 C89.03810298 131.61329515 89.02103481 140.80664494 89 150 C85.13514406 148.73899189 81.54082822 147.38710978 77.91796875 145.5390625 C76.98533203 145.06726563 76.05269531 144.59546875 75.09179688 144.109375 C73.65416992 143.37460937 73.65416992 143.37460937 72.1875 142.625 C70.2861695 141.65686166 68.38383588 140.69069065 66.48046875 139.7265625 C65.64410889 139.29939941 64.80774902 138.87223633 63.94604492 138.43212891 C60.01188965 136.51966062 55.9973498 134.77659991 52 133 C52 116.83 52 100.66 52 84 C50.02 83.01 50.02 83.01 48 82 C46.82323851 81.19454191 45.66706314 80.35833435 44.53125 79.49609375 C43.88357666 79.00713623 43.23590332 78.51817871 42.56860352 78.0144043 C41.88596436 77.49402588 41.2033252 76.97364746 40.5 76.4375 C39.06123771 75.34890574 37.62243528 74.26036453 36.18359375 73.171875 C35.47444824 72.63369141 34.76530273 72.09550781 34.03466797 71.54101562 C31.22058931 69.40969039 28.39137566 67.29914464 25.5625 65.1875 C22.11750244 62.61530361 18.70836805 60.0017923 15.31616211 57.3605957 C14.5073912 56.7310347 13.6986203 56.10147369 12.86534119 55.45283508 C12.24977859 54.97339951 11.634216 54.49396393 11 54 C10.99978263 54.58731777 10.99956526 55.17463554 10.99934131 55.77975082 C10.98582381 90.59334306 10.94633462 125.4068116 10.87314438 160.22033077 C10.86437769 164.40095581 10.85582787 168.58158127 10.84741211 172.76220703 C10.84573305 173.59449007 10.84405398 174.42677311 10.84232404 175.28427684 C10.81565832 188.758353 10.80655927 202.23238662 10.80395857 215.70648646 C10.80089851 229.53341632 10.77894574 243.36022322 10.73947543 257.18709755 C10.71571721 265.7182361 10.70667413 274.24912919 10.71648689 282.78029627 C10.72180495 288.6314119 10.70876235 294.48230769 10.6813371 300.33336073 C10.66605649 303.70872112 10.66154172 307.08317956 10.67340279 310.45861626 C10.68500062 314.12159068 10.66593961 317.78317835 10.63923645 321.44604492 C10.64990971 322.50831676 10.66058297 323.57058861 10.67157966 324.66505051 C10.58067773 331.34672009 9.36581136 335.84226287 5 341 C1.05094069 344.31826115 -2.3653652 344.43239211 -7.4375 344.4375 C-8.71496094 344.45683594 -9.99242187 344.47617187 -11.30859375 344.49609375 C-16.6743828 343.77497713 -19.69721461 341.40841664 -23.3125 337.5 C-25.97284718 333.55874491 -26.12536259 330.23457191 -26.13142776 325.54262733 C-26.13526891 324.42716015 -26.13911005 323.31169296 -26.1430676 322.16242373 C-26.14220112 320.93695531 -26.14133463 319.71148689 -26.14044189 318.44888306 C-26.14341302 317.14704555 -26.14638414 315.84520804 -26.1494453 314.50392091 C-26.15751408 310.88743599 -26.1593048 307.27097093 -26.16004276 303.65447807 C-26.16189349 299.75527794 -26.16944085 295.8560881 -26.17617798 291.95689392 C-26.18976018 283.43014177 -26.19578562 274.90339433 -26.20018864 266.37663317 C-26.20295081 261.05377509 -26.20718808 255.73091883 -26.21169281 250.40806198 C-26.2238845 235.67372311 -26.23418455 220.93938569 -26.2375679 206.20504189 C-26.23778747 205.26202375 -26.23800703 204.31900562 -26.23823325 203.34741118 C-26.23845153 202.40212793 -26.23866981 201.45684467 -26.2388947 200.48291647 C-26.23933817 198.56738702 -26.23978473 196.65185757 -26.24023438 194.73632812 C-26.2404558 193.78615788 -26.24067723 192.83598764 -26.24090537 191.85702436 C-26.24485489 176.45481092 -26.26231402 161.05264476 -26.2855939 145.65044959 C-26.30929611 129.84141861 -26.32176921 114.03241137 -26.32293582 98.22336233 C-26.32385313 89.34542159 -26.32961964 80.46754247 -26.34775543 71.58961868 C-26.36314105 64.03132049 -26.36828594 56.47310295 -26.36001733 48.91479208 C-26.35610557 45.05785267 -26.35706597 41.20107577 -26.37107468 37.34415627 C-26.38611751 33.16434766 -26.37796288 28.98490666 -26.36749268 24.80508423 C-26.37554908 23.58407725 -26.38360548 22.36307027 -26.39190602 21.10506308 C-26.35316265 14.51628472 -26.18385451 9.41069402 -21.46484375 4.35546875 C-14.59870871 -0.8951051 -8.41217041 -0.99862788 0 0 Z " fill="#FEFCFE" transform="translate(841,309)"/>
<path d="M0 0 C4.37711916 3.21783265 5.09692937 7.10860203 5.953125 12.16015625 C6.59636719 11.64066406 7.23960937 11.12117188 7.90234375 10.5859375 C22.62433055 -0.77582407 35.74208188 -2.47249027 53.953125 -0.83984375 C65.57392654 0.84354339 75.75320871 6.76413822 83.203125 15.74609375 C92.10244774 28.02239163 94.61911525 42.30455261 92.953125 57.16015625 C91.2778471 66.33200145 87.98476296 74.96399412 81.953125 82.16015625 C81.45296875 82.78148437 80.9528125 83.4028125 80.4375 84.04296875 C72.92971752 92.46188988 60.74723812 97.48184778 49.6171875 98.34033203 C33.34133719 99.19261473 21.36882747 96.92140213 7.953125 87.16015625 C7.293125 86.50015625 6.633125 85.84015625 5.953125 85.16015625 C5.94725876 85.85062546 5.94139252 86.54109467 5.93534851 87.25248718 C5.8714142 94.43902135 5.78699377 101.62510773 5.69067383 108.8112793 C5.65577489 111.49322226 5.6281363 114.17509426 5.60668945 116.85717773 C5.57315354 120.71238058 5.52083573 124.566941 5.46484375 128.421875 C5.45525887 130.22056282 5.45525887 130.22056282 5.44548035 132.05558777 C5.42568619 133.17637222 5.40589203 134.29715668 5.38549805 135.4519043 C5.37439499 136.43563522 5.36329193 137.41936615 5.35185242 138.4329071 C4.7627458 142.46232784 3.00545021 145.11917075 0.140625 147.953125 C-2.72106605 149.53216524 -4.79355825 149.52552265 -8.046875 149.47265625 C-9.078125 149.46878906 -10.109375 149.46492187 -11.171875 149.4609375 C-14.12543645 149.15193719 -15.67769419 148.93193587 -18.046875 147.16015625 C-22.13033494 141.32011606 -21.46870953 134.99783242 -21.43505859 128.16577148 C-21.44031555 126.85619476 -21.44557251 125.54661804 -21.45098877 124.19735718 C-21.4646293 120.61682716 -21.45937773 117.03655736 -21.44985151 113.45602298 C-21.44223951 109.70407854 -21.44930465 105.95215591 -21.45401001 102.20021057 C-21.45946241 95.90141817 -21.45228882 89.60273143 -21.43798828 83.30395508 C-21.4216556 76.02615031 -21.42695671 68.7485976 -21.4434675 61.47079891 C-21.45708864 55.21585257 -21.45899919 48.96098204 -21.45115149 42.70602566 C-21.44647932 38.97292993 -21.44583766 35.23995263 -21.45576096 31.50686455 C-21.46604926 27.34614034 -21.45178304 23.18584974 -21.43505859 19.02514648 C-21.44113129 17.79019943 -21.44720398 16.55525238 -21.45346069 15.28288269 C-21.44500122 14.14876953 -21.43654175 13.01465637 -21.42782593 11.84617615 C-21.42669485 10.8630416 -21.42556377 9.87990705 -21.42439842 8.86698055 C-20.97756285 5.66319156 -19.91664287 3.7766575 -18.046875 1.16015625 C-13.22059767 -2.24723697 -5.34531674 -2.19321202 0 0 Z " fill="#FCFAFE" transform="translate(446.046875,486.83984375)"/>
<path d="M0 0 C0.86625 0.2784375 1.7325 0.556875 2.625 0.84375 C15.0397793 5.23434268 25.17472098 15.09717615 31.0703125 26.7421875 C35.4763479 37.44255917 36.17538275 52.15055511 32.375 63.1875 C31.63533932 64.81629983 30.84387124 66.42267057 30 68 C29.57589844 68.8559375 29.15179687 69.711875 28.71484375 70.59375 C22.22034003 82.6058683 11.13570683 89.75924966 -1.66333008 93.8515625 C-9.19718503 95.94268264 -16.26993271 96.45794868 -24.0625 96.375 C-25.15626953 96.38660156 -26.25003906 96.39820313 -27.37695312 96.41015625 C-43.2889122 96.35336163 -57.71739509 90.55205167 -69.625 80 C-79.54374878 69.57259744 -82.55411081 55.44626036 -82.3125 41.5234375 C-81.28909145 29.98450608 -75.5831684 18.56362835 -67.09765625 10.65625 C-48.97906162 -3.64967946 -21.80903847 -7.71295263 0 0 Z " fill="#FCFAFD" transform="translate(741,489)"/>
<path d="M0 0 C1.19302734 -0.00322266 2.38605469 -0.00644531 3.61523438 -0.00976562 C21.31155308 0.09724895 38.2577161 4.64523173 51.01171875 17.53515625 C56.67308302 23.86256337 56.67308302 23.86256337 57.125 28.5625 C56.75963599 32.94686813 55.55223233 34.92812477 52.8125 38.3125 C49.01431562 40.21159219 44.92969521 40.05226114 40.8125 39.3125 C38.50230288 37.84044069 36.74159907 36.17918308 34.796875 34.25390625 C26.80314251 26.43326639 15.96747869 21.80014934 4.8125 21.3125 C3.90886719 21.2609375 3.00523437 21.209375 2.07421875 21.15625 C-7.46066208 20.85944437 -17.73195677 21.8379493 -25.1875 28.3125 C-27.53615502 31.3016973 -27.62944749 34.54424343 -27.4765625 38.296875 C-26.94410762 42.00966852 -25.79277067 43.58880794 -23.1875 46.3125 C-13.96402056 52.08213564 -3.84726045 54.59765899 6.5625 57.25 C24.98156088 61.94387721 46.63583458 67.5326787 57.8125 84.3125 C62.42472395 92.93475842 63.50077186 102.68580723 61.08203125 112.1796875 C60.15014868 114.68245784 59.08971836 116.96882538 57.8125 119.3125 C57.30396484 120.26382813 57.30396484 120.26382813 56.78515625 121.234375 C51.47157979 129.78148019 41.99902053 134.14363055 32.8125 137.3125 C31.265625 137.9003125 31.265625 137.9003125 29.6875 138.5 C7.62580901 144.73482571 -18.74811662 139.913237 -38.7265625 129.4609375 C-55.56115257 119.56519486 -55.56115257 119.56519486 -59.1875 112.3125 C-59.59460593 108.07859838 -59.44325965 105.79661648 -57.4375 102 C-54.15109018 98.07456605 -54.15109018 98.07456605 -51.1875 97.3125 C-44.56643739 97.55772454 -40.83737922 100.15040949 -35.83203125 104.234375 C-20.43129966 116.33657471 -2.46666005 120.13740437 16.8125 118.3125 C23.49007447 117.26863096 28.08979803 115.15326952 32.8125 110.3125 C35.53130738 105.9058424 34.9458859 102.20395492 33.8125 97.3125 C31.49534465 92.07371399 28.25574311 89.90644971 23.22265625 87.59375 C13.73430898 84.02882685 3.81492578 81.60358663 -5.98828125 79.06640625 C-18.94937503 75.67289068 -33.23382999 71.75055197 -43.1875 62.3125 C-43.88359375 61.65636719 -44.5796875 61.00023437 -45.296875 60.32421875 C-51.72785847 53.71720472 -55.2647577 46.48175133 -55.625 37.1875 C-55.16386024 27.16963635 -50.63765823 19.00672299 -43.484375 12.11328125 C-30.77316273 2.14751789 -15.71574512 -0.21434459 0 0 Z " fill="#FCFAFD" transform="translate(213.1875,445.6875)"/>
<path d="M0 0 C3.74030185 1.60298651 4.73158465 2.59737698 7 6 C7.2515564 8.34352112 7.2515564 8.34352112 7.25537109 11.13891602 C7.26233002 12.18753311 7.26928894 13.23615021 7.27645874 14.31654358 C7.27546173 15.45087326 7.27446472 16.58520294 7.2734375 17.75390625 C7.29373952 20.15950975 7.31459054 22.56510867 7.3359375 24.97070312 C7.35846932 28.76021173 7.37497989 32.54953899 7.38085938 36.33911133 C7.39043215 39.99854326 7.42428383 43.65715887 7.4609375 47.31640625 C7.45589203 48.43656631 7.45084656 49.55672638 7.44564819 50.71083069 C7.55017953 59.14917618 9.0476878 66.14559241 14.25 72.9375 C20.57855576 77.68391682 27.1718692 79.04758809 35 78 C42.22914019 76.10526568 48.59941997 73.7655116 52.765625 67.23046875 C53.25546875 66.22628906 53.7453125 65.22210937 54.25 64.1875 C55.00023437 62.69283203 55.00023437 62.69283203 55.765625 61.16796875 C58.32092211 54.60991193 58.13277686 47.83575023 58.140625 40.90234375 C58.15893985 38.94725385 58.17850892 36.99217537 58.19921875 35.03710938 C58.22824093 31.98018806 58.25000214 28.92401176 58.25048828 25.86694336 C58.25382448 22.89891756 58.28836028 19.93257637 58.328125 16.96484375 C58.3210553 16.05532455 58.3139856 15.14580536 58.30670166 14.20872498 C58.39017988 9.84616874 58.61631722 6.90351746 61.41699219 3.43969727 C65.64374542 -0.55254706 68.66087216 -0.28119562 74.30078125 -0.21484375 C77.66328952 0.05279439 79.49334015 0.72833951 82 3 C85.18310487 7.20233805 85.43007063 10.89995687 85.38818359 15.99975586 C85.39344055 16.79064102 85.39869751 17.58152618 85.40411377 18.39637756 C85.41728405 21.00273571 85.40858555 23.60847971 85.3984375 26.21484375 C85.40045929 28.03178525 85.40337161 29.84872595 85.40713501 31.66566467 C85.4115545 35.47111752 85.40514013 39.27635888 85.39111328 43.08178711 C85.3740338 47.95198146 85.38385707 52.82167935 85.40183067 57.69185543 C85.41268904 61.44344296 85.40921254 65.19491347 85.4014473 68.94650459 C85.39945033 70.7417971 85.40188683 72.53710033 85.40888596 74.33238029 C85.41653293 76.84548813 85.40485072 79.35780075 85.38818359 81.87084961 C85.39425629 82.60818329 85.40032898 83.34551697 85.40658569 84.10519409 C85.34908769 88.80172032 84.45881848 92.00201754 82 96 C78.19251984 99.4613456 74.3011796 99.45033624 69.375 99.2890625 C66.2468292 98.90833119 64.37142746 98.07499902 62 96 C60.25128969 93.08128926 59.6725385 90.62210296 59.375 87.25 C59.26285156 86.05117188 59.26285156 86.05117188 59.1484375 84.828125 C59.09945312 84.22484375 59.05046875 83.6215625 59 83 C58.401875 83.845625 57.80375 84.69125 57.1875 85.5625 C50.77752041 93.2037751 40.90562674 98.29900847 31.01757812 99.17578125 C18.4934905 99.95783846 5.77921748 99.13119619 -4.2265625 90.6875 C-12.36979227 82.93887608 -17.53179943 74.65655779 -18.15390015 63.15454102 C-18.16676056 62.11483154 -18.17962097 61.07512207 -18.19287109 60.00390625 C-18.20893402 58.81917725 -18.22499695 57.63444824 -18.24154663 56.41381836 C-18.28612649 51.03010739 -18.32744585 45.64653788 -18.35009766 40.26269531 C-18.36346468 37.42057308 -18.39137956 34.57916413 -18.43212891 31.73730469 C-18.49090014 27.63724694 -18.50874808 23.53795677 -18.5234375 19.4375 C-18.54610687 18.16656494 -18.56877625 16.89562988 -18.59213257 15.58618164 C-18.56857454 5.79336811 -18.56857454 5.79336811 -15.59228516 2.72265625 C-10.4929412 -0.66602062 -6.02851351 -0.49656831 0 0 Z " fill="#FDFCFE" transform="translate(317,486)"/>
<path d="M0 0 C0.09353661 17.72437296 0.16402481 35.44868166 0.20724869 53.17324829 C0.2278538 61.40350609 0.25593498 69.63361032 0.30175781 77.86376953 C0.34168862 85.03910649 0.36744773 92.2143322 0.37635398 99.38977718 C0.38155822 103.18743096 0.39374677 106.98476655 0.42292023 110.78231812 C0.45018837 114.3610435 0.45842227 117.93932139 0.45243073 121.51814079 C0.4540458 123.44896546 0.47550881 125.37974203 0.49768066 127.31044006 C0.46437768 134.35868653 -0.15445642 139.02981204 -4 145 C-9.74326354 150.46310434 -14.96381663 150.340274 -22.6015625 150.28515625 C-28.04071978 149.82876719 -30.01777509 148.05301866 -33.75 144.1875 C-37.52525982 137.58079532 -37.27639868 130.77298724 -37.22705078 123.37329102 C-37.22734283 122.2213475 -37.22763489 121.06940399 -37.22793579 119.8825531 C-37.22654674 116.08959317 -37.21100525 112.2968317 -37.1953125 108.50390625 C-37.19158087 105.86832283 -37.1887346 103.23273802 -37.18673706 100.59715271 C-37.18053492 94.37830801 -37.16414135 88.1595341 -37.14403808 81.9407205 C-37.12163955 74.85726883 -37.11067573 67.77381369 -37.10064721 60.69033539 C-37.07977392 46.12685384 -37.04462269 31.56342791 -37 17 C-36.25951416 16.66266846 -35.51902832 16.32533691 -34.75610352 15.9777832 C-31.35649386 14.42647409 -27.95949259 12.869531 -24.5625 11.3125 C-22.81549805 10.51682617 -22.81549805 10.51682617 -21.03320312 9.70507812 C-15.10297116 6.98218288 -9.30933912 4.19017528 -3.68725586 0.87182617 C-2 0 -2 0 0 0 Z " fill="#FDFCFE" transform="translate(930,503)"/>
<path d="M0 0 C1.03769531 -0.02578125 2.07539062 -0.0515625 3.14453125 -0.078125 C6.67102565 0.30213884 8.40042447 1.0733366 11.1875 3.25 C13.67116627 6.75747193 14.56299173 9.1600441 14.56845093 13.44248962 C14.5769104 14.46721878 14.58536987 15.49194794 14.59408569 16.54772949 C14.588013 17.66111694 14.58194031 18.77450439 14.57568359 19.92163086 C14.58094055 21.10265884 14.58619751 22.28368683 14.59161377 23.50050354 C14.60254254 26.73203732 14.59999827 29.96320145 14.59047651 33.19472957 C14.58286594 36.58185889 14.58992956 39.96896403 14.59463501 43.35609436 C14.60008926 49.04465143 14.59291049 54.73309156 14.57861328 60.42163086 C14.56229515 66.98992575 14.56757034 73.55794113 14.5840925 80.12622923 C14.59772624 85.77311047 14.5996176 91.41990778 14.59177649 97.06680018 C14.5871093 100.43609448 14.58644853 103.80525761 14.59638596 107.17454338 C14.60400556 110.93287917 14.59238763 114.69067874 14.57568359 118.44897461 C14.58479263 120.11601944 14.58479263 120.11601944 14.59408569 121.81674194 C14.54860603 127.34103229 14.43207315 131.54158592 11.1875 136.25 C6.47908128 139.61315623 1.7907241 140.01642991 -3.8125 139.25 C-7.57858482 137.61257182 -9.64462102 135.70502532 -11.8125 132.25 C-12.19281673 129.80398655 -12.19281673 129.80398655 -12.20018005 127.0191803 C-12.21008469 125.96072403 -12.21998932 124.90226776 -12.23019409 123.81173706 C-12.22569244 122.65578033 -12.2211908 121.49982361 -12.21655273 120.30883789 C-12.22341599 119.08733536 -12.23027924 117.86583282 -12.23735046 116.60731506 C-12.25251722 113.26002765 -12.25411213 109.91329704 -12.24840808 106.56601644 C-12.24531723 103.77027355 -12.25140754 100.97458106 -12.25744683 98.17884535 C-12.27149328 91.58248509 -12.26992997 84.98625434 -12.25854492 78.38989258 C-12.24706458 71.58808202 -12.26113731 64.7866658 -12.2879414 57.98490721 C-12.31010398 52.14188107 -12.31673452 46.29897867 -12.31086498 40.45591348 C-12.30749535 36.96753811 -12.30991044 33.47941549 -12.32711601 29.99107552 C-12.34546688 26.10074553 -12.33139221 22.2108998 -12.31420898 18.32055664 C-12.32387695 17.16662415 -12.33354492 16.01269165 -12.34350586 14.8237915 C-12.27117464 7.01798218 -12.27117464 7.01798218 -9.90614319 3.05809021 C-6.52862492 0.14123324 -4.40610149 0.06519509 0 0 Z " fill="#FBF9FE" transform="translate(574.8125,446.75)"/>
<path d="M0 0 C5.75920208 4.73786575 9.63274589 9.63802385 10.546875 17.16796875 C11.31254842 26.32201985 11.14955777 34.71907722 5.31640625 42.26953125 C-0.61417903 49.05485721 -7.52821274 52.75663693 -16.4921875 53.6484375 C-27.28594436 54.1294496 -37.08414652 52.19103755 -45.68359375 45.26953125 C-52.15834273 38.42479662 -54.07408768 30.17652294 -53.96484375 21.02734375 C-53.31105379 14.61656998 -50.89413045 7.3976064 -46.4296875 2.61328125 C-33.13747041 -7.61607598 -14.30937159 -9.22714936 0 0 Z " fill="#6022F6" transform="translate(738.68359375,511.73046875)"/>
<path d="M0 0 C7.27754419 9.48286061 9.14806946 16.58213826 8.0625 28.6875 C6.24150156 35.96298444 3.22027193 41.41140355 -2.484375 46.28515625 C-9.16531964 50.10435868 -15.82490077 51.22220181 -23.4375 51.125 C-24.27120117 51.11742676 -25.10490234 51.10985352 -25.96386719 51.10205078 C-32.01632046 50.93940149 -36.88353972 50.23413879 -41.9375 46.6875 C-42.88109375 46.06875 -42.88109375 46.06875 -43.84375 45.4375 C-49.43003836 41.27145444 -53.20191776 35.70374482 -54.22412109 28.73291016 C-55.05530874 19.64428147 -54.7268036 11.15892572 -48.9375 3.6875 C-36.52963558 -10.20190047 -14.53509947 -11.44252511 0 0 Z " fill="#6021F7" transform="translate(504.9375,513.3125)"/>
<path d="M0 0 C2.475 0.99 2.475 0.99 5 2 C7.66201747 3.01277453 10.33129263 4.00488878 13 5 C13 5.66 13 6.32 13 7 C13.66 7.0825 14.32 7.165 15 7.25 C18.05331447 8.01332862 20.55311839 9.22841773 23.33203125 10.6796875 C27.00084885 12.49529563 30.74628224 14.11873645 34.5 15.75 C35.23130127 16.06791504 35.96260254 16.38583008 36.71606445 16.71337891 C38.47666463 17.47722837 40.23823204 18.23884782 42 19 C42 19.66 42 20.32 42 21 C42.55945313 21.13535156 43.11890625 21.27070313 43.6953125 21.41015625 C51.71779851 23.56410346 58.6689982 27.1683051 66 31 C67.33160512 31.67011196 68.66404464 32.33860338 70 33 C69.4375 34.8125 69.4375 34.8125 68 37 C65.0625 38.4375 65.0625 38.4375 63.1796875 39.16015625 C55.22409113 42.2254846 47.59687409 46.14909836 40 50 C37.52214552 51.2526931 35.04338538 52.50334069 32.5625 53.75 C31.89758545 54.08443115 31.2326709 54.4188623 30.54760742 54.76342773 C24.12824601 57.9727322 17.63668983 61.02531509 11.11938477 64.03027344 C10.35037842 64.38895508 9.58137207 64.74763672 8.7890625 65.1171875 C8.10537598 65.43284668 7.42168945 65.74850586 6.71728516 66.07373047 C4.81504811 66.99384125 4.81504811 66.99384125 3 69 C2.01 69 1.02 69 0 69 C0 46.23 0 23.46 0 0 Z " fill="#F55C0A" transform="translate(878,447)"/>
<path d="M0 0 C3.27435443 2.86506012 4.43520076 4.31353515 4.76069641 8.70358276 C4.77565053 10.18887651 4.77945705 11.67430669 4.7746582 13.15966797 C4.7823246 14.37722778 4.7823246 14.37722778 4.79014587 15.61938477 C4.80406077 18.30622709 4.8030835 20.9928134 4.80078125 23.6796875 C4.80466753 25.54672338 4.80900206 27.41375839 4.81376648 29.28079224 C4.82123305 33.1965013 4.82093453 37.11212021 4.81567383 41.02783203 C4.80988279 46.04388482 4.82679921 51.05956794 4.8500185 56.07555962 C4.8647576 59.93260859 4.86562723 63.78956863 4.86250877 67.64664078 C4.86302203 69.49579729 4.86826069 71.34495877 4.87832069 73.19408798 C4.89066932 75.78181639 4.88390273 78.3688259 4.87231445 80.95654297 C4.88378006 82.10070175 4.88378006 82.10070175 4.89547729 83.26797485 C4.85101113 87.76464342 4.22935035 90.58916179 1.5 94.1875 C-1.63451533 97.25475106 -4.04415611 97.64342016 -8.375 97.6875 C-12.35703139 97.59512076 -15.04337569 97.40712931 -18.1875 94.875 C-21.89002281 90.57206808 -21.65775416 86.7338979 -21.67700195 81.32299805 C-21.68357315 80.52265137 -21.69014435 79.72230469 -21.69691467 78.89770508 C-21.71663062 76.24820867 -21.72830611 73.59876889 -21.73828125 70.94921875 C-21.74235678 70.0437562 -21.7464323 69.13829365 -21.75063133 68.20539284 C-21.77148424 63.41337945 -21.78578965 58.62139464 -21.79516602 53.8293457 C-21.80623226 48.88283439 -21.84063682 43.93677269 -21.88033772 38.99042034 C-21.90649489 35.1839566 -21.91485702 31.37760017 -21.91844749 27.57105446 C-21.92331533 25.74782078 -21.93493496 23.92459196 -21.95348549 22.10144615 C-21.97785944 19.54733091 -21.97691544 16.99438172 -21.9699707 14.44018555 C-21.98278076 13.69035904 -21.99559082 12.94053253 -22.00878906 12.16798401 C-21.95807783 7.03912529 -20.7222209 4.14353609 -17.5 0.1875 C-12.26979766 -3.44633536 -5.40543375 -2.79924248 0 0 Z " fill="#FCFAFE" transform="translate(633.5,487.8125)"/>
<path d="M0 0 C3.61144316 1.48222097 6.06736067 3.48366803 8.1484375 6.8671875 C9.72668464 10.82004501 9.53416906 14.82556775 9 19 C6.77048975 23.54159496 4.50203282 25.79312116 0 28 C-5.6617622 28.73503579 -12.63867076 29.44889392 -17.6875 26.3125 C-21.65930256 22.34069744 -23.17556898 19.69824156 -23.4375 14.0625 C-23.28235325 9.32347205 -22.24117032 6.59156711 -19 3 C-13.18253794 -1.27845093 -6.94035402 -0.86156119 0 0 Z " fill="#FCF9FD" transform="translate(632,447)"/>
<path d="M0 0 C0.33 0 0.66 0 1 0 C1.00173625 0.672716 1.0034725 1.345432 1.00526136 2.03853333 C1.10825533 41.89562259 1.21636043 81.75269504 1.33111694 121.60975225 C1.34488677 126.39380608 1.35861383 131.17786003 1.37231445 135.96191406 C1.37504276 136.91434631 1.37777106 137.86677856 1.38058204 138.84807239 C1.4246754 154.27637771 1.46530274 169.70469031 1.50465261 185.13300838 C1.54509633 200.96000219 1.58925679 216.78698247 1.63687855 232.61395633 C1.66615398 242.38261429 1.69251893 252.15127125 1.71517897 261.91994683 C1.73098838 268.61569458 1.75040301 275.31142577 1.77266841 282.00715514 C1.78541364 285.87210613 1.79655419 289.73704444 1.80341911 293.60201073 C1.81090053 297.79070184 1.82596584 301.97933134 1.84178162 306.16799927 C1.84324878 308.00360245 1.84324878 308.00360245 1.84474558 309.87628853 C1.85022002 310.99943801 1.85569446 312.12258749 1.8613348 313.2797718 C1.86399284 314.24653977 1.86665089 315.21330773 1.86938947 316.20937169 C2.00950706 319.20312823 2.45254677 322.05569113 3 325 C2.34 325 1.68 325 1 325 C1 323.68 1 322.36 1 321 C0.34 321 -0.32 321 -1 321 C-1.02286802 280.39533025 -1.04049907 239.79066134 -1.05106533 199.18598644 C-1.0523161 194.39677741 -1.05361041 189.60756839 -1.05493164 184.81835938 C-1.05519395 183.86487788 -1.05545626 182.91139639 -1.05572652 181.92902152 C-1.06008278 166.47213919 -1.06797009 151.01526057 -1.0771528 135.55838044 C-1.08649055 119.70881709 -1.09205587 103.85925568 -1.09408849 88.00968969 C-1.09546347 78.22258433 -1.09981269 68.43548944 -1.10791647 58.6483873 C-1.11318542 51.94520348 -1.11480395 45.2420251 -1.11350138 38.53883936 C-1.11285823 34.66627484 -1.11387287 30.79372866 -1.11920547 26.92116737 C-1.12493345 22.73109363 -1.12299923 18.5410594 -1.12025452 14.35098267 C-1.12316736 13.11559584 -1.1260802 11.88020902 -1.12908131 10.60738623 C-1.12709026 9.49220095 -1.12509921 8.37701566 -1.12304783 7.22803688 C-1.12342755 6.25975004 -1.12380727 5.2914632 -1.1241985 4.29383433 C-1 2 -1 2 0 0 Z " fill="#5A2BCF" transform="translate(814,321)"/>
<path d="M0 0 C1.98 1.32 3.96 2.64 6 4 C5.01 4.495 5.01 4.495 4 5 C3.34 4.67 2.68 4.34 2 4 C2.33 95.08 2.66 186.16 3 280 C2.01 280.33 1.02 280.66 0 281 C-0.37756808 282.32148827 -0.7018576 283.65835921 -1 285 C-2.57211807 288.79157888 -3.7562072 289.87145471 -7.4375 291.8125 C-12.84185065 293.59382228 -20.78924372 294.60537814 -26 292 C-25.67 291.34 -25.34 290.68 -25 290 C-23.98679687 290.04640625 -22.97359375 290.0928125 -21.9296875 290.140625 C-20.57815468 290.17816758 -19.22658972 290.21456506 -17.875 290.25 C-16.87726562 290.30027344 -16.87726562 290.30027344 -15.859375 290.3515625 C-10.70663395 290.45259664 -7.86061313 289.37943527 -4 286 C-0.2583033 280.4496225 -0.57210853 275.09790109 -0.60127258 268.64859009 C-0.59462576 267.50006888 -0.58797893 266.35154767 -0.58113068 265.16822278 C-0.56572511 261.98924131 -0.56365916 258.81057556 -0.56726015 255.63156915 C-0.56788454 252.20011142 -0.55125886 248.76873182 -0.53674316 245.33731079 C-0.5139603 239.39512172 -0.5020726 233.45299125 -0.49761391 227.51076126 C-0.49115162 218.91934254 -0.46821288 210.32802975 -0.44127061 201.73665373 C-0.39800382 187.79726973 -0.36803645 173.8578902 -0.34643555 159.91845703 C-0.32542554 146.37872119 -0.29815025 132.83902184 -0.26245117 119.29931641 C-0.26025235 118.46453399 -0.25805352 117.62975156 -0.25578807 116.76967271 C-0.24471841 112.58175628 -0.2335256 108.3938402 -0.22227156 104.20592427 C-0.12908798 69.47064733 -0.0574893 34.73535366 0 0 Z " fill="#6E44D9" transform="translate(851,362)"/>
<path d="M0 0 C-1.50663783 3.01327566 -4.03166411 3.61056618 -7 5 C-6.505 6.98 -6.505 6.98 -6 9 C-5.34 9 -4.68 9 -4 9 C-4 9.66 -4 10.32 -4 11 C-4.66 11 -5.32 11 -6 11 C-5.505 11.99 -5.505 11.99 -5 13 C-4.90217263 14.85120907 -4.86929918 16.70597901 -4.86628723 18.55976868 C-4.86202225 19.74168793 -4.85775726 20.92360718 -4.85336304 22.14134216 C-4.85381622 23.44475052 -4.85426941 24.74815887 -4.85473633 26.09106445 C-4.85174538 27.47239269 -4.848343 28.85372009 -4.84455872 30.23504639 C-4.83570661 33.99341273 -4.83338006 37.75175632 -4.83274293 41.51013207 C-4.83179445 44.64624784 -4.82811674 47.78235827 -4.82457083 50.91847199 C-4.81642118 58.3182907 -4.81398701 65.71809724 -4.81469727 73.11791992 C-4.81529776 80.7523121 -4.80475273 88.38663355 -4.7889536 96.02100784 C-4.77587718 102.57309245 -4.77051343 109.12515395 -4.77115268 115.67725152 C-4.77140769 119.59147798 -4.76855463 123.50564165 -4.75797462 127.41985512 C-4.74829227 131.10275784 -4.74821538 134.78553777 -4.75549126 138.46844482 C-4.75703536 140.46299331 -4.74869073 142.45754177 -4.74005127 144.45207214 C-4.74424576 145.64245087 -4.74844025 146.83282959 -4.75276184 148.0592804 C-4.75221707 149.09185628 -4.75167231 150.12443216 -4.75111103 151.18829823 C-5.11515995 155.30096336 -6.07073487 158.07073487 -9 161 C-11.125 161.625 -11.125 161.625 -13 162 C-12.65066406 161.45730469 -12.30132813 160.91460938 -11.94140625 160.35546875 C-11.48636719 159.64003906 -11.03132812 158.92460938 -10.5625 158.1875 C-9.88380859 157.12595703 -9.88380859 157.12595703 -9.19140625 156.04296875 C-7.08784018 152.43587021 -6.86799248 149.53082603 -6.84178162 145.43818665 C-6.82709839 143.702892 -6.82709839 143.702892 -6.81211853 141.93254089 C-6.80636307 140.66227554 -6.8006076 139.39201019 -6.79467773 138.08325195 C-6.78509827 136.73306987 -6.77508814 135.38289078 -6.76467896 134.03271484 C-6.73763125 130.36567322 -6.71662096 126.69861874 -6.69667697 123.03153253 C-6.6748166 119.19980538 -6.64742816 115.36811789 -6.62062073 111.53642273 C-6.57069454 104.27981263 -6.52575543 97.02318052 -6.48259836 89.76652735 C-6.43322536 81.50540381 -6.37830746 73.24432006 -6.32291877 64.983235 C-6.20909986 47.98886011 -6.10226061 30.99444829 -6 14 C-8.55441351 15.27577617 -11.10867137 16.55186234 -13.6628418 17.828125 C-14.73972889 18.36590576 -14.73972889 18.36590576 -15.83837128 18.91455078 C-19.69870516 20.84378649 -23.55289411 22.78369365 -27.39453125 24.75 C-28.14154297 25.13027344 -28.88855469 25.51054688 -29.65820312 25.90234375 C-31.14736302 26.66109974 -32.63420336 27.42441918 -34.11914062 28.19140625 C-34.84939453 28.56136719 -35.57964844 28.93132813 -36.33203125 29.3125 C-37.28686401 29.80169922 -37.28686401 29.80169922 -38.26098633 30.30078125 C-40 31 -40 31 -43 31 C-42 28 -42 28 -39.9375 26.8125 C-39.298125 26.544375 -38.65875 26.27625 -38 26 C-38.33 25.34 -38.66 24.68 -39 24 C-38.34 24 -37.68 24 -37 24 C-37.33 23.34 -37.66 22.68 -38 22 C-38.66 22.33 -39.32 22.66 -40 23 C-41.67654729 22.72057545 -43.34608154 22.39171753 -45 22 C-45 22.66 -45 23.32 -45 24 C-53.42857143 27.28571429 -53.42857143 27.28571429 -58 28 C-54.57740103 25.09040017 -51.28364558 22.99087757 -47.21875 21.08984375 C-46.12949219 20.57486328 -45.04023437 20.05988281 -43.91796875 19.52929688 C-42.79003906 19.00400391 -41.66210938 18.47871094 -40.5 17.9375 C-38.25937704 16.88632774 -36.01975552 15.83301765 -33.78125 14.77734375 C-32.79189453 14.31577881 -31.80253906 13.85421387 -30.78320312 13.37866211 C-28.09320943 12.04617137 -25.56896635 10.54936096 -23 9 C-21.32253264 8.29030227 -19.64463043 7.5815178 -17.9609375 6.88671875 C-15.68694135 5.85843762 -13.54628352 4.66741309 -11.375 3.4375 C-2.79793835 -1.39896918 -2.79793835 -1.39896918 0 0 Z " fill="#5F24E7" transform="translate(936,489)"/>
<path d="M0 0 C5.91236678 1.2062638 11.23071515 4.33409235 16.625 6.9375 C17.78257812 7.48857422 18.94015625 8.03964844 20.1328125 8.60742188 C21.78796875 9.4030957 21.78796875 9.4030957 23.4765625 10.21484375 C24.9937085 10.94368774 24.9937085 10.94368774 26.54150391 11.68725586 C29 13 29 13 31 15 C30.01 15.66 29.02 16.32 28 17 C26.8499169 18.96672915 26.8499169 18.96672915 26 21 C25.67 21.66 25.34 22.32 25 23 C19.56673096 21.51244479 14.75964047 20.08733436 10 17 C6.03922888 15.23179861 2.03540338 13.58970436 -2 12 C-2 11.34 -2 10.68 -2 10 C-2.7425 9.87625 -3.485 9.7525 -4.25 9.625 C-6.80141485 9.04513299 -8.7267573 8.26291261 -11 7 C-8.13822943 5.56911472 -6.06624227 6.40008303 -3 7 C-3 5.35 -3 3.7 -3 2 C-2.01 2 -1.02 2 0 2 C0 1.34 0 0.68 0 0 Z " fill="#6725E6" transform="translate(893,442)"/>
<path d="M0 0 C0.66 0.33 1.32 0.66 2 1 C1.34 1.66 0.68 2.32 0 3 C-0.31412319 5.20678977 -0.31412319 5.20678977 -0.2784729 7.7961731 C-0.28963638 8.80862091 -0.30079987 9.82106873 -0.31230164 10.86419678 C-0.31446182 11.97909485 -0.31662201 13.09399292 -0.31884766 14.24267578 C-0.32889328 15.4133963 -0.3389389 16.58411682 -0.34928894 17.79031372 C-0.37493086 21.00497711 -0.3917556 24.2195439 -0.40471697 27.43427896 C-0.42032187 30.79224614 -0.44712043 34.15012318 -0.4727478 37.50802612 C-0.51958253 43.86863342 -0.55630382 50.22925759 -0.58942068 56.58994949 C-0.627609 63.83054245 -0.67702771 71.071045 -0.72740483 78.31156182 C-0.83079444 93.20764111 -0.92003188 108.1037752 -1 123 C-2.81691146 119.88264581 -3.24815101 117.63097461 -3.24050903 114.03924561 C-3.24325836 113.04087677 -3.24600769 112.04250793 -3.24884033 111.0138855 C-3.24164978 109.92487946 -3.23445923 108.83587341 -3.22705078 107.71386719 C-3.22734283 106.56236176 -3.22763489 105.41085632 -3.22793579 104.22445679 C-3.22654153 100.41518643 -3.21097553 96.60611123 -3.1953125 92.796875 C-3.19158272 90.15700385 -3.18873558 87.51713132 -3.18673706 84.8772583 C-3.18052292 78.6370644 -3.16411302 72.39694064 -3.14403808 66.15677762 C-3.12167701 59.05163042 -3.11068513 51.94647985 -3.10064721 44.84130621 C-3.07974672 30.2275013 -3.04457203 15.61375163 -3 1 C-2.01 0.67 -1.02 0.34 0 0 Z " fill="#D8C2FE" transform="translate(896,519)"/>
<path d="M0 0 C0.33 0 0.66 0 1 0 C1.06956183 10.58780549 1.12284274 21.17555647 1.15543652 31.76354408 C1.17108123 36.6801728 1.19229776 41.59664497 1.22631836 46.51318359 C1.2589543 51.25940868 1.27686201 56.00548333 1.28463173 60.75181198 C1.29016762 62.5610834 1.30097792 64.37034674 1.31719017 66.17955399 C1.33902083 68.71705051 1.34196459 71.25392832 1.34057617 73.79150391 C1.35675491 74.90928726 1.35675491 74.90928726 1.3732605 76.0496521 C1.34536672 80.77218111 0.40898061 83.94846595 -2 88 C-3.125 84.25 -3.125 84.25 -2 82 C-1.88304421 79.51444206 -1.82486319 77.05524946 -1.81054688 74.56860352 C-1.80225357 73.80259827 -1.79396027 73.03659302 -1.78541565 72.24737549 C-1.76800003 70.58152407 -1.75283736 68.91564794 -1.73963928 67.24975777 C-1.71863853 64.61492089 -1.69161314 61.98020781 -1.66296387 59.34544373 C-1.60322111 53.75117655 -1.5510927 48.15685198 -1.5 42.5625 C-1.4407979 36.08465374 -1.37850662 29.60686844 -1.30812073 23.12913322 C-1.28152294 20.53057173 -1.2607213 17.93200419 -1.2401123 15.33338928 C-1.22350943 13.74252021 -1.2066376 12.15165391 -1.18945312 10.56079102 C-1.18526871 9.83601059 -1.18108429 9.11123016 -1.17677307 8.36448669 C-1.13846459 5.30688252 -0.97479686 2.92439059 0 0 Z " fill="#D7C7F9" transform="translate(401,494)"/>
<path d="M0 0 C2.475 0.99 2.475 0.99 5 2 C4.01 2.33 3.02 2.66 2 3 C2.10744117 10.5278099 2.22006227 18.05552707 2.33933926 25.58315849 C2.39455772 29.07835597 2.44797596 32.57356184 2.49731445 36.06884766 C2.55408436 40.08505496 2.61862219 44.10110445 2.68359375 48.1171875 C2.70030624 49.37554413 2.71701874 50.63390076 2.73423767 51.9303894 C2.75418289 53.09144196 2.77412811 54.25249451 2.79467773 55.44873047 C2.81022202 56.47465302 2.8257663 57.50057556 2.84178162 58.55758667 C2.8416631 61.00704188 2.8416631 61.00704188 4 63 C7.02934491 63.65772428 7.02934491 63.65772428 10 64 C8.515 64.99 8.515 64.99 7 66 C6.34 66.53625 5.68 67.0725 5 67.625 C3 69 3 69 0 69 C0 46.23 0 23.46 0 0 Z " fill="#DA5649" transform="translate(878,447)"/>
<path d="M0 0 C1.04929687 -0.01417969 2.09859375 -0.02835937 3.1796875 -0.04296875 C6.06047071 0.18245063 7.68740208 0.69785683 10.125 2.1875 C9.135 2.6825 9.135 2.6825 8.125 3.1875 C7.135 2.8575 6.145 2.5275 5.125 2.1875 C2.78108572 1.87882403 2.78108572 1.87882403 0.25 1.8125 C-1.01457031 1.73902344 -1.01457031 1.73902344 -2.3046875 1.6640625 C-6.27272057 2.47214218 -7.45871837 3.93091803 -9.875 7.1875 C-10.635308 11.13306938 -10.5649598 15.0381231 -10.53442383 19.04614258 C-10.54490753 20.24656189 -10.55539124 21.4469812 -10.56619263 22.68377686 C-10.59002424 25.96670957 -10.59187438 29.24876649 -10.58389878 32.53174806 C-10.58077081 35.96581775 -10.60581645 39.39968014 -10.62785339 42.83366394 C-10.6652872 49.33236478 -10.67744096 55.83085638 -10.6804778 62.3296544 C-10.68516938 69.72997209 -10.71809578 77.13008026 -10.75337565 84.5303055 C-10.82529941 99.74935523 -10.86182515 114.96827916 -10.875 130.1875 C-10.215 130.5175 -9.555 130.8475 -8.875 131.1875 C-9.535 132.1775 -10.195 133.1675 -10.875 134.1875 C-12.12411608 131.68926785 -12.00919359 129.99350554 -12.02217102 127.19718933 C-12.02932632 126.14148239 -12.03648163 125.08577545 -12.04385376 123.99807739 C-12.04654266 122.83493011 -12.04923157 121.67178284 -12.05200195 120.47338867 C-12.05857315 119.25217819 -12.06514435 118.03096771 -12.07191467 116.77275085 C-12.08827037 113.41725596 -12.09987699 110.06182417 -12.1081202 106.70630431 C-12.11327003 104.61003545 -12.11934577 102.51377101 -12.12563133 100.41750526 C-12.14468419 93.8591699 -12.158915 87.30084581 -12.1672433 80.74248809 C-12.17701649 73.17122843 -12.2033374 65.60026107 -12.24374419 58.02910441 C-12.27390164 52.1776518 -12.28871181 46.32628298 -12.29202431 40.47475415 C-12.29437529 36.97960626 -12.30334115 33.48477059 -12.32848549 29.98970604 C-12.35608998 26.08964042 -12.35193617 22.18995956 -12.3449707 18.28979492 C-12.35778076 17.13272034 -12.37059082 15.97564575 -12.38378906 14.7835083 C-12.33270798 6.95513869 -12.33270798 6.95513869 -9.97062683 2.99360657 C-6.55794748 0.0524042 -4.44654978 0.0271794 0 0 Z " fill="#FEF1FE" transform="translate(574.875,446.8125)"/>
<path d="M0 0 C0.99 0.33 1.98 0.66 3 1 C2.01 2.485 2.01 2.485 1 4 C0.68886235 6.63621933 0.68886235 6.63621933 0.7253418 9.64208984 C0.71580978 10.80114838 0.70627777 11.96020691 0.69645691 13.15438843 C0.69736832 14.41054962 0.69827972 15.66671082 0.69921875 16.9609375 C0.69493362 18.2576236 0.6906485 19.55430969 0.68623352 20.89028931 C0.67876554 23.64255851 0.67906304 26.39469954 0.68432617 29.14697266 C0.69006823 32.63773893 0.67332244 36.12796545 0.6499815 39.61864281 C0.63148643 42.98276068 0.63543488 46.34676942 0.63671875 49.7109375 C0.627509 50.94685638 0.61829926 52.18277527 0.60881042 53.45614624 C0.65177786 61.66900462 1.82413091 69.0827486 4 77 C3.01 77 2.02 77 1 77 C0.01 77.99 0.01 77.99 -1 79 C-1.33 78.01 -1.66 77.02 -2 76 C-1.01 75.01 -1.01 75.01 0 74 C-0.30091748 70.81027476 -0.82904641 67.75766509 -1.53388977 64.63380432 C-2.04175109 61.76408111 -2.13423531 59.08566659 -2.14526367 56.17163086 C-2.15164352 55.02371567 -2.15802338 53.87580048 -2.16459656 52.69309998 C-2.16570938 51.46277542 -2.1668222 50.23245087 -2.16796875 48.96484375 C-2.17129715 47.69403458 -2.17462555 46.4232254 -2.17805481 45.11390686 C-2.18311315 42.42998747 -2.18589652 39.74616942 -2.18530273 37.06225586 C-2.1852009 33.62683491 -2.1988834 30.19161965 -2.21607494 26.75624752 C-2.22987288 23.47162061 -2.2292835 20.18699572 -2.23046875 16.90234375 C-2.23765427 15.66999496 -2.24483978 14.43764618 -2.25224304 13.16795349 C-2.24916641 12.02319046 -2.24608978 10.87842743 -2.24291992 9.69897461 C-2.24434494 8.69257431 -2.24576996 7.68617401 -2.24723816 6.64927673 C-1.99522565 3.94884057 -1.38271394 2.30796532 0 0 Z " fill="#6D41D9" transform="translate(299,488)"/>
<path d="M0 0 C0.66 0 1.32 0 2 0 C3.85950965 3.1684404 4.24441908 5.46195428 4.22273254 9.1169281 C4.2214032 10.15014191 4.22007385 11.18335571 4.21870422 12.24787903 C4.20687607 13.37578354 4.19504791 14.50368805 4.18286133 15.66577148 C4.17821869 16.85801331 4.17357605 18.05025513 4.16879272 19.27862549 C4.15356221 22.54526234 4.12912548 25.81166139 4.09965348 29.07819629 C4.07611634 31.80679287 4.058676 34.535415 4.04115504 37.26405579 C3.99962091 43.70225529 3.9473301 50.14030691 3.88842773 56.57836914 C3.82788874 63.21639384 3.78564873 69.85435753 3.75240308 76.49257034 C3.72318283 82.19554298 3.68248729 87.89835581 3.63263911 93.60118538 C3.60300276 97.00563032 3.57772146 100.40996486 3.56351662 103.81451225 C3.54451253 107.61156481 3.50673623 111.40798317 3.46411133 115.20483398 C3.46240433 116.33071426 3.46069733 117.45659454 3.4589386 118.61659241 C3.44351013 119.65262604 3.42808167 120.68865967 3.41218567 121.75608826 C3.40497907 122.65332831 3.39777246 123.55056837 3.39034748 124.47499752 C2.91879914 127.52525607 1.71977307 129.46595493 0 132 C0 129 0 129 1 126 C1.0919159 124.34686591 1.1262836 122.69024844 1.12698364 121.03456116 C1.12980347 120.00969101 1.13262329 118.98482086 1.13552856 117.92889404 C1.13350433 116.80517395 1.1314801 115.68145386 1.12939453 114.52368164 C1.13114685 113.33973312 1.13289917 112.15578461 1.13470459 110.93595886 C1.13835516 107.68802388 1.13749436 104.44012956 1.1343255 101.19219518 C1.13179488 97.79344805 1.13414146 94.39470365 1.13571167 90.99595642 C1.13753155 85.28709424 1.13513205 79.57824499 1.13037109 73.86938477 C1.12493142 67.27050268 1.12668971 60.67165151 1.1321975 54.07277018 C1.13673688 48.4072986 1.13737505 42.74183632 1.13475883 37.0763635 C1.13320027 33.69261286 1.13299073 30.30887674 1.13629532 26.92512703 C1.13882908 23.1519676 1.13497079 19.37886786 1.12939453 15.60571289 C1.13141876 14.48401703 1.13344299 13.36232117 1.13552856 12.20663452 C1.13129883 10.66509956 1.13129883 10.66509956 1.12698364 9.09242249 C1.12660662 8.20033616 1.12622959 7.30824984 1.12584114 6.38913059 C1.00647536 4.12293662 0.63560588 2.17230776 0 0 Z " fill="#5E29DA" transform="translate(587,451)"/>
<path d="M0 0 C1.65 0 3.3 0 5 0 C4.51349724 0.98716759 4.51349724 0.98716759 4.01716614 1.99427795 C2.75277363 5.73055298 2.71244863 9.19506402 2.7253418 13.09155273 C2.7176754 14.29251083 2.7176754 14.29251083 2.70985413 15.51773071 C2.69598827 18.1564284 2.69691257 20.79486403 2.69921875 23.43359375 C2.69533027 25.27295529 2.69099528 27.11231593 2.68623352 28.95167542 C2.67877786 32.80415764 2.67905793 36.65654821 2.68432617 40.5090332 C2.69012102 45.43973604 2.67318629 50.37006326 2.6499815 55.300704 C2.63523218 59.09859908 2.63437407 62.89640394 2.63749123 66.69432259 C2.63697865 68.51195075 2.63175293 70.32958405 2.62167931 72.14718437 C2.60930843 74.69138711 2.61611015 77.23486119 2.62768555 79.77905273 C2.62004181 80.52573715 2.61239807 81.27242157 2.60452271 82.04173279 C2.65184928 86.76066466 3.59442114 89.95002024 6 94 C2.125 92.25 2.125 92.25 1 90 C0.87727389 87.16315554 0.81425439 84.34928006 0.79467773 81.51123047 C0.77982834 80.19406036 0.77982834 80.19406036 0.76467896 78.85028076 C0.73301726 75.93927738 0.70828809 73.02825765 0.68359375 70.1171875 C0.66302825 68.10221933 0.64203189 66.08725551 0.62062073 64.07229614 C0.56535829 58.76226319 0.51596743 53.45219103 0.46777344 48.14208984 C0.41758885 42.72620138 0.36188692 37.31037003 0.30664062 31.89453125 C0.19900803 21.26306959 0.0975744 10.6315584 0 0 Z " fill="#5D2DD6" transform="translate(610,489)"/>
<path d="M0 0 C1.98 0.99 1.98 0.99 4 2 C4 18.17 4 34.34 4 51 C3.34 50.67 2.68 50.34 2 50 C1.9845388 49.17100945 1.9845388 49.17100945 1.96876526 48.32527161 C1.86047301 42.56626091 1.74589397 36.8073995 1.62768555 31.04858398 C1.58440948 28.9001783 1.54272927 26.75173985 1.50268555 24.60327148 C1.4448054 21.51275768 1.38116208 18.4224077 1.31640625 15.33203125 C1.29969376 14.37351761 1.28298126 13.41500397 1.26576233 12.42744446 C1.24581711 11.52688828 1.22587189 10.62633209 1.20532227 9.69848633 C1.18977798 8.91016922 1.1742337 8.12185211 1.15821838 7.30964661 C0.98678269 4.80705578 0.54036139 2.44725642 0 0 Z " fill="#5E28E3" transform="translate(889,391)"/>
<path d="M0 0 C0.66 0 1.32 0 2 0 C2.144375 1.134375 2.28875 2.26875 2.4375 3.4375 C2.61171478 6.80777201 2.61171478 6.80777201 4 8 C4.08651611 9.41570123 4.10704904 10.835595 4.09765625 12.25390625 C4.09443359 13.10791016 4.09121094 13.96191406 4.08789062 14.84179688 C4.07951172 15.73962891 4.07113281 16.63746094 4.0625 17.5625 C4.05798828 18.46419922 4.05347656 19.36589844 4.04882812 20.29492188 C4.03700225 22.53001314 4.0205222 24.76497437 4 27 C3.34 27 2.68 27 2 27 C2.02320313 27.59167969 2.04640625 28.18335938 2.0703125 28.79296875 C2.17411464 33.33801959 2.13708357 36.85940059 0 41 C-0.66 41 -1.32 41 -2 41 C-2.66 43.31 -3.32 45.62 -4 48 C-4.66 48 -5.32 48 -6 48 C-6 48.66 -6 49.32 -6 50 C-6.66 49.67 -7.32 49.34 -8 49 C-7.60167969 48.26136719 -7.20335937 47.52273438 -6.79296875 46.76171875 C1.32766941 31.21198096 2.41085074 17.16759034 0 0 Z " fill="#6431DB" transform="translate(537,518)"/>
<path d="M0 0 C20.78785929 -0.19208494 20.78785929 -0.19208494 29 1 C29.33 1.33 29.66 1.66 30 2 C31.0725 2.12375 32.145 2.2475 33.25 2.375 C36.99310375 2.99885062 38.8746558 3.9727497 42 6 C44.19130534 6.69579454 44.19130534 6.69579454 46 7 C46 7.66 46 8.32 46 9 C41.17608632 8.15183935 36.73783443 6.57270361 32.1328125 4.9375 C25.08315378 2.82787644 17.86443412 2.72729699 10.5625 2.4375 C9.54478516 2.39431641 8.52707031 2.35113281 7.47851562 2.30664062 C4.98578972 2.20131418 2.49297662 2.09918328 0 2 C0 1.34 0 0.68 0 0 Z " fill="#7042E1" transform="translate(205,444)"/>
<path d="M0 0 C7.875 0.875 7.875 0.875 9 2 C10.51469448 2.23192865 12.03754562 2.41215238 13.5625 2.5625 C14.38878906 2.64628906 15.21507812 2.73007812 16.06640625 2.81640625 C16.70449219 2.87699219 17.34257812 2.93757812 18 3 C18 3.66 18 4.32 18 5 C20.97941998 5.05455703 23.95781531 5.09393851 26.9375 5.125 C27.76830078 5.14175781 28.59910156 5.15851562 29.45507812 5.17578125 C34.56852275 5.21557459 39.06397111 4.72040327 43.99438477 3.33544922 C46.28694003 2.95200784 47.80467483 3.29683153 50 4 C34.95412117 10.65186222 16.85900098 7.58481814 2 2 C1.34 1.34 0.68 0.68 0 0 Z " fill="#693CD6" transform="translate(190,558)"/>
<path d="M0 0 C0 0.33 0 0.66 0 1 C-3.02140528 1.18311547 -5.13176889 0.95652985 -8.03125 0 C-12.79793324 -1.41202576 -17.50673231 -1.21729659 -22.4375 -1.125 C-23.35982422 -1.11597656 -24.28214844 -1.10695313 -25.23242188 -1.09765625 C-27.48855809 -1.0742766 -29.74413684 -1.04150916 -32 -1 C-32 -0.34 -32 0.32 -32 1 C-36.455 2.485 -36.455 2.485 -41 4 C-41 4.99 -41 5.98 -41 7 C-42.32 6.67 -43.64 6.34 -45 6 C-30.6677408 -5.50303401 -17.11407718 -6.09467931 0 0 Z " fill="#7145DC" transform="translate(736,510)"/>
<path d="M0 0 C0.66 0.33 1.32 0.66 2 1 C0.78437378 1.82310669 0.78437378 1.82310669 -0.45581055 2.6628418 C-4.81762811 7.06927465 -3.72499433 13.61757213 -3.70703125 19.39453125 C-3.72215256 20.69702316 -3.73727386 21.99951508 -3.75285339 23.34147644 C-3.79263821 26.79225329 -3.80288942 30.24250232 -3.80688477 33.69348145 C-3.81622882 37.21964462 -3.85365009 40.74549928 -3.88867188 44.27148438 C-3.95318036 51.18094572 -3.98647556 58.09025585 -4 65 C-4.33 65 -4.66 65 -5 65 C-5.11598804 57.26351895 -5.20476267 49.52712835 -5.25906086 41.78997517 C-5.28512544 38.1969914 -5.32046329 34.60460364 -5.37719727 31.01196289 C-5.43163335 27.54301814 -5.46144416 24.07464561 -5.47438622 20.60530663 C-5.48808449 18.64148949 -5.52710018 16.67790175 -5.56648254 14.71443176 C-5.56960611 4.78210277 -5.56960611 4.78210277 -2.46948242 1.64916992 C-1.65455322 1.10494385 -0.83962402 0.56071777 0 0 Z " fill="#F9EBFE" transform="translate(304,487)"/>
<path d="M0 0 C2 1 2 1 2 1 Z M6.0625 1.8125 C7.32416992 1.9372168 7.32416992 1.9372168 8.61132812 2.06445312 C9.41119141 2.15275391 10.21105469 2.24105469 11.03515625 2.33203125 C11.7712915 2.41171143 12.50742676 2.4913916 13.26586914 2.57348633 C13.83813232 2.71423584 14.41039551 2.85498535 15 3 C15.495 3.99 15.495 3.99 16 5 C15.29093506 4.98952637 14.58187012 4.97905273 13.85131836 4.96826172 C-5.66373742 4.70614837 -5.66373742 4.70614837 -25 7 C-24.34 6.34 -23.68 5.68 -23 5 C-21.68 5 -20.36 5 -19 5 C-19 4.34 -19 3.68 -19 3 C-18.01257813 2.93941406 -17.02515625 2.87882812 -16.0078125 2.81640625 C-14.72648438 2.73261719 -13.44515625 2.64882813 -12.125 2.5625 C-10.84882812 2.48128906 -9.57265625 2.40007812 -8.2578125 2.31640625 C1.84484257 1.33521313 1.84484257 1.33521313 6.0625 1.8125 Z " fill="#6434DB" transform="translate(718,482)"/>
<path d="M0 0 C3.60555842 1.33920741 6.70914824 3.02548894 10 5 C14.3945128 7.2334087 18.49001763 7.23705053 23.3125 7.125 C24.42334961 7.11146484 24.42334961 7.11146484 25.55664062 7.09765625 C27.37123467 7.07424213 29.18566071 7.03837615 31 7 C31 6.67 31 6.34 31 6 C33.64 6 36.28 6 39 6 C38.67 6.66 38.34 7.32 38 8 C29.67033227 10.54153248 16.65781493 10.68900526 8.625 7.3125 C5.16802389 5.38735762 2.57317088 2.98819844 0 0 Z " fill="#6737DA" transform="translate(458,555)"/>
<path d="M0 0 C6.18171824 1.26444237 10.96730333 4.16912805 16.328125 7.44140625 C18.96616735 9.10253531 18.96616735 9.10253531 22 10 C21.4375 11.875 21.4375 11.875 20 14 C16.375 15.25 16.375 15.25 13 16 C13.33 15.01 13.66 14.02 14 13 C15.32 13 16.64 13 18 13 C17.67 11.68 17.34 10.36 17 9 C15.68 9 14.36 9 13 9 C13 8.34 13 7.68 13 7 C11.35 7 9.7 7 8 7 C8 6.34 8 5.68 8 5 C7.01 5 6.02 5 5 5 C5 4.34 5 3.68 5 3 C3.68 3 2.36 3 1 3 C0.67 2.01 0.34 1.02 0 0 Z " fill="#D7554F" transform="translate(926,470)"/>
<path d="M0 0 C-0.33 0.99 -0.66 1.98 -1 3 C-6.86905342 5.46678827 -13.6790972 5.30890261 -19.9375 5.25 C-20.78634766 5.25773438 -21.63519531 5.26546875 -22.50976562 5.2734375 C-23.31994141 5.27085937 -24.13011719 5.26828125 -24.96484375 5.265625 C-25.6930835 5.26336914 -26.42132324 5.26111328 -27.17163086 5.25878906 C-29 5 -29 5 -31 3 C-30.40574219 2.98018066 -29.81148438 2.96036133 -29.19921875 2.93994141 C-26.46575581 2.84376007 -23.73296197 2.73446443 -21 2.625 C-19.59814453 2.57859375 -19.59814453 2.57859375 -18.16796875 2.53125 C-12.06332471 2.27511109 -5.92247691 0 0 0 Z " fill="#5C29D3" transform="translate(508,582)"/>
<path d="M0 0 C0.33 0 0.66 0 1 0 C1.09796875 1.24394531 1.1959375 2.48789062 1.296875 3.76953125 C2.02927681 12.19511557 2.75224285 20.0062162 6.09765625 27.87109375 C6.95872093 29.90260999 7.52480356 31.84936871 8 34 C6.62437146 32.71034824 5.29233607 31.37310707 4 30 C4 29.34 4 28.68 4 28 C2.68 27.67 1.36 27.34 0 27 C0 18.09 0 9.18 0 0 Z " fill="#6738DB" transform="translate(658,528)"/>
<path d="M0 0 C-2.99481865 4.31606218 -2.99481865 4.31606218 -5 6 C-8.3125 5.875 -8.3125 5.875 -11 5 C-11 5.66 -11 6.32 -11 7 C-19.42857143 10.28571429 -19.42857143 10.28571429 -24 11 C-19.80008231 7.28630033 -15.34854265 5.02398459 -10.3125 2.6875 C-9.15524414 2.1296582 -9.15524414 2.1296582 -7.97460938 1.56054688 C-7.23662109 1.21443359 -6.49863281 0.86832031 -5.73828125 0.51171875 C-5.06837158 0.19678467 -4.39846191 -0.11814941 -3.70825195 -0.44262695 C-2 -1 -2 -1 0 0 Z " fill="#7E29BB" transform="translate(902,506)"/>
<path d="M0 0 C0.33 0.66 0.66 1.32 1 2 C1.66 2 2.32 2 3 2 C3 2.66 3 3.32 3 4 C-4.92 4.33 -12.84 4.66 -21 5 C-18.08493545 3.05662363 -17.17028308 2.72325333 -13.875 2.4375 C-10.22536034 2.43313101 -10.22536034 2.43313101 -9 1 C-7.48530552 0.76807135 -5.96245438 0.58784762 -4.4375 0.4375 C-3.61121094 0.35371094 -2.78492188 0.26992188 -1.93359375 0.18359375 C-0.97646484 0.09271484 -0.97646484 0.09271484 0 0 Z " fill="#622EDD" transform="translate(493,482)"/>
<path d="M0 0 C-4.7987811 3.84912758 -9.47100869 3.34850223 -15.3125 3.1875 C-16.24384766 3.17396484 -17.17519531 3.16042969 -18.13476562 3.14648438 C-20.42377646 3.11126882 -22.71158458 3.06202099 -25 3 C-25 2.34 -25 1.68 -25 1 C-24.44538086 0.97494385 -23.89076172 0.9498877 -23.31933594 0.92407227 C-20.79601157 0.80772073 -18.27302464 0.68517246 -15.75 0.5625 C-14.87730469 0.52318359 -14.00460937 0.48386719 -13.10546875 0.44335938 C-12.26113281 0.40146484 -11.41679687 0.35957031 -10.546875 0.31640625 C-9.77182617 0.27974854 -8.99677734 0.24309082 -8.19824219 0.20532227 C-5.98417268 0.06114677 -5.98417268 0.06114677 -3.84082031 -0.58227539 C-2 -1 -2 -1 0 0 Z " fill="#6130D6" transform="translate(356,584)"/>
<path d="M0 0 C2.31 0.33 4.62 0.66 7 1 C7 1.99 7 2.98 7 4 C7.66 4 8.32 4 9 4 C10.10812188 5.10812188 11.21129839 6.22151221 12.29296875 7.35546875 C15.93458286 10.86375145 20.02119641 13.88648962 24 17 C20.16920823 17 19.12445706 15.84891847 16.11328125 13.53515625 C14.7065918 12.45911133 14.7065918 12.45911133 13.27148438 11.36132812 C12.29501953 10.60271484 11.31855469 9.84410156 10.3125 9.0625 C9.32443359 8.30775391 8.33636719 7.55300781 7.31835938 6.77539062 C1.99688194 2.68053394 1.99688194 2.68053394 0 1 C0 0.67 0 0.34 0 0 Z " fill="#6233D4" transform="translate(895,349)"/>
<path d="M0 0 C0.66 0 1.32 0 2 0 C0.63088196 3.1489715 -0.8752136 5.0478487 -3.5 7.25 C-4.41265625 8.03117188 -4.41265625 8.03117188 -5.34375 8.828125 C-7 10 -7 10 -9 10 C-9.33 9.01 -9.66 8.02 -10 7 C-9.34 7 -8.68 7 -8 7 C-8 6.34 -8 5.68 -8 5 C-8.66 5 -9.32 5 -10 5 C-10 4.34 -10 3.68 -10 3 C-7.39417629 2.06934867 -6.35801776 1.85082593 -3.75 2.9375 C-3.1725 3.288125 -2.595 3.63875 -2 4 C-2 3.34 -2 2.68 -2 2 C-1.34 2 -0.68 2 0 2 C0 1.34 0 0.68 0 0 Z " fill="#6227F2" transform="translate(507,551)"/>
<path d="M0 0 C0.8971875 0.5259375 0.8971875 0.5259375 1.8125 1.0625 C-2.59779783 3.27199832 -6.67690324 3.2995648 -11.5 3.1875 C-12.24056641 3.17847656 -12.98113281 3.16945313 -13.74414062 3.16015625 C-15.55873467 3.13674213 -17.37316071 3.10087615 -19.1875 3.0625 C-19.1875 2.4025 -19.1875 1.7425 -19.1875 1.0625 C-18.21167969 1.00191406 -17.23585938 0.94132813 -16.23046875 0.87890625 C-14.95816406 0.79511719 -13.68585937 0.71132813 -12.375 0.625 C-11.11042969 0.54378906 -9.84585938 0.46257813 -8.54296875 0.37890625 C-0.81599873 -0.34971374 -0.81599873 -0.34971374 0 0 Z " fill="#6A3BDF" transform="translate(923.1875,651.9375)"/>
<path d="M0 0 C1.48034764 0.47550561 2.95925021 0.95551216 4.4375 1.4375 C5.26121094 1.70433594 6.08492188 1.97117187 6.93359375 2.24609375 C9 3 9 3 10 4 C12.52596259 4.23653523 15.03107207 4.42173692 17.5625 4.5625 C18.62887695 4.62727539 18.62887695 4.62727539 19.71679688 4.69335938 C21.47761912 4.79971777 23.2387832 4.90038846 25 5 C20.71491012 7.85672658 17.02851706 7.48422757 12 7 C6.95589014 5.8227546 3.36145252 4.06175513 0 0 Z " fill="#7B52DE" transform="translate(330,558)"/>
<path d="M0 0 C2.64 0 5.28 0 8 0 C8 0.66 8 1.32 8 2 C8.680625 1.95875 9.36125 1.9175 10.0625 1.875 C13.59924168 2.02549965 16.63323033 2.94375853 20 4 C20 4.66 20 5.32 20 6 C20.66 6 21.32 6 22 6 C22 6.66 22 7.32 22 8 C14.60606981 5.84071065 7.29582259 3.4695482 0 1 C0 0.67 0 0.34 0 0 Z " fill="#6939DD" transform="translate(228,505)"/>
<path d="M0 0 C7.93396732 -0.24923458 15.2441657 0.29005228 23 2 C23 2.33 23 2.66 23 3 C20.47886908 3.05447822 17.9589415 3.09389852 15.4375 3.125 C14.73302734 3.14175781 14.02855469 3.15851563 13.30273438 3.17578125 C8.48108178 3.22022044 4.57702562 2.52768004 0 1 C0 0.67 0 0.34 0 0 Z " fill="#703FE4" transform="translate(206,466)"/>
<path d="M0 0 C3.25 2 3.25 2 5 4 C4.67 4.66 4.34 5.32 4 6 C3.30132813 5.51015625 2.60265625 5.0203125 1.8828125 4.515625 C-1.42498904 2.77656403 -3.41907718 2.65711973 -7.125 2.75 C-8.67574219 2.77320313 -8.67574219 2.77320313 -10.2578125 2.796875 C-13.09084046 2.89401186 -13.09084046 2.89401186 -16 4 C-16 3.34 -16 2.68 -16 2 C-11.03262622 -0.97804183 -5.61307216 -0.65855963 0 0 Z " fill="#6D40DB" transform="translate(582,445)"/>
<path d="M0 0 C3.52648783 1.69476842 6.8767124 3.64502684 10.25 5.625 C11.32765625 6.25664063 12.4053125 6.88828125 13.515625 7.5390625 C14.74539062 8.26222656 14.74539062 8.26222656 16 9 C14.68 9.33 13.36 9.66 12 10 C12 9.34 12 8.68 12 8 C11.37351563 7.97421875 10.74703125 7.9484375 10.1015625 7.921875 C8.87566406 7.83679688 8.87566406 7.83679688 7.625 7.75 C6.81289062 7.70359375 6.00078125 7.6571875 5.1640625 7.609375 C3 7 3 7 1.7734375 5.140625 C1.15747721 3.43584602 0.57320838 1.71962513 0 0 Z " fill="#6632E1" transform="translate(162,567)"/>
<path d="M0 0 C0.33 0 0.66 0 1 0 C1 2.64 1 5.28 1 8 C0.67 7.01 0.34 6.02 0 5 C-4.14670039 7.37629089 -4.14670039 7.37629089 -7 11 C-9.875 12.6875 -9.875 12.6875 -13 14 C-13.99 13.67 -14.98 13.34 -16 13 C-15.26394531 12.56429687 -14.52789062 12.12859375 -13.76953125 11.6796875 C-8.1823854 8.26983098 -3.86807328 5.28636682 0 0 Z " fill="#6E46D3" transform="translate(376,568)"/>
<path d="M0 0 C2.62924382 0.94944916 4.75003352 1.79841413 6.9375 3.5625 C9.56341194 5.39268105 11.85539725 5.64265878 15 6 C14.67 6.99 14.34 7.98 14 9 C14.39397335 11.63804589 14.39397335 11.63804589 15 14 C14.319375 13.29875 13.63875 12.5975 12.9375 11.875 C10.3031591 9.23315386 7.50802531 6.8234601 4.6484375 4.4296875 C3.0216148 3.01874648 1.50389529 1.54035336 0 0 Z " fill="#6534DD" transform="translate(256,516)"/>
<path d="M0 0 C2.37109375 1.0234375 2.37109375 1.0234375 4 2 C3.01 2.495 3.01 2.495 2 3 C1.01 2.67 0.02 2.34 -1 2 C-6.15772764 1.38806621 -9.78077418 1.06018009 -14 4.3125 C-15.38372129 6.17187548 -16.71434401 8.07151601 -18 10 C-17.76065097 6.48954758 -17.34119266 4.44708004 -15.1875 1.625 C-10.31169707 -0.86070346 -5.37546622 -0.63588734 0 0 Z " fill="#F1E1FE" transform="translate(581,447)"/>
<path d="M0 0 C2.93200474 2.85276137 5.64315404 5.65079784 8 9 C7.030625 9.12375 6.06125 9.2475 5.0625 9.375 C4.051875 9.58125 3.04125 9.7875 2 10 C1.67 10.66 1.34 11.32 1 12 C0.34 10.68 -0.32 9.36 -1 8 C-0.01 7.01 0.98 6.02 2 5 C1.34 3.35 0.68 1.7 0 0 Z " fill="#632BE6" transform="translate(162,499)"/>
<path d="M0 0 C0.66 0.33 1.32 0.66 2 1 C-2.52662722 5.77810651 -2.52662722 5.77810651 -5 6.9375 C-7.18679555 8.09923513 -8.09478924 9.2055251 -9.625 11.125 C-10.40875 12.07375 -11.1925 13.0225 -12 14 C-12.66 14 -13.32 14 -14 14 C-11.31433267 7.98040081 -6.00422829 2.74479008 0 0 Z " fill="#F3E4FE" transform="translate(177,453)"/>
<path d="M0 0 C1.32 1.65 2.64 3.3 4 5 C3.34 5.66 2.68 6.32 2 7 C-0.475 6.01 -0.475 6.01 -3 5 C-3 5.99 -3 6.98 -3 8 C-3.66 8 -4.32 8 -5 8 C-5 8.99 -5 9.98 -5 11 C-5.66 11 -6.32 11 -7 11 C-5.72278474 6.00724943 -3.82669043 3.42388092 0 0 Z " fill="#612AE3" transform="translate(460,513)"/>
<path d="M0 0 C1.32 0.66 2.64 1.32 4 2 C3 4 3 4 2 5 C2.28730055 7.33944736 2.61936779 9.6739143 3 12 C1.50260417 10.73046875 0.00520833 9.4609375 -1.4921875 8.19140625 C-3.00594079 6.9121848 -3.00594079 6.9121848 -5 6 C-5 5.34 -5 4.68 -5 4 C-2.525 4.495 -2.525 4.495 0 5 C0 3.35 0 1.7 0 0 Z " fill="#632CE6" transform="translate(635,481)"/>
<path d="M0 0 C1.98 0 3.96 0 6 0 C2.2064129 3.21880117 -1.65829477 5.6163187 -6 8 C-6 6.35 -6 4.7 -6 3 C-4.02 2.67 -2.04 2.34 0 2 C0 1.34 0 0.68 0 0 Z " fill="#622FE1" transform="translate(175,451)"/>
<path d="M0 0 C2 1 4 2 6 3 C6 3.66 6 4.32 6 5 C9.62197194 6.49140021 13.27566618 7.7874262 17 9 C16.01 10.485 16.01 10.485 15 12 C13.24312628 10.94890486 11.49476874 9.88356877 9.75 8.8125 C8.77546875 8.22082031 7.8009375 7.62914062 6.796875 7.01953125 C3.93262591 4.95135139 2.06532698 2.84720076 0 0 Z " fill="#683BDA" transform="translate(173,546)"/>
<path d="M0 0 C1.890625 0.3359375 1.890625 0.3359375 4 1 C6.92264949 5.38397423 7.31191814 8.80136436 7 14 C5.10331936 11.15497903 3.76736522 8.42700115 2.375 5.3125 C1.92898438 4.31863281 1.48296875 3.32476562 1.0234375 2.30078125 C0.68570313 1.54152344 0.34796875 0.78226562 0 0 Z " fill="#6534DC" transform="translate(530,504)"/>
<path d="M0 0 C0.99 0.33 1.98 0.66 3 1 C2.34 2.32 1.68 3.64 1 5 C2.32 5 3.64 5 5 5 C5 5.66 5 6.32 5 7 C1.04179141 6.43454163 -1.6659053 5.19097652 -5 3 C-4.360625 2.690625 -3.72125 2.38125 -3.0625 2.0625 C-1.06389179 1.1654837 -1.06389179 1.1654837 0 0 Z " fill="#6733E1" transform="translate(195,490)"/>
<path d="M0 0 C12.66970387 -0.3690205 12.66970387 -0.3690205 18 2 C18 2.33 18 2.66 18 3 C11.71739294 3.23268915 6.11980533 2.40454548 0 1 C0 0.67 0 0.34 0 0 Z " fill="#683ADC" transform="translate(478,506)"/>
<path d="M0 0 C0.825 0.639375 1.65 1.27875 2.5 1.9375 C6.23191406 4.46413081 9.55723303 4.69360228 14 5 C14 5.33 14 5.66 14 6 C7.565 6.495 7.565 6.495 1 7 C0.67 4.69 0.34 2.38 0 0 Z " fill="#6E40E0" transform="translate(248,480)"/>
<path d="M0 0 C0.66 0.66 1.32 1.32 2 2 C1.34 2 0.68 2 0 2 C0 2.66 0 3.32 0 4 C-1.20703125 5.61328125 -1.20703125 5.61328125 -3 7 C-5.26171875 7.29296875 -5.26171875 7.29296875 -7.6875 7.1875 C-8.49574219 7.16042969 -9.30398438 7.13335938 -10.13671875 7.10546875 C-10.75160156 7.07066406 -11.36648438 7.03585937 -12 7 C-9.62905601 5.41937067 -7.4213606 4.17309564 -4.875 2.9375 C-2.24526174 1.74120952 -2.24526174 1.74120952 0 0 Z " fill="#EDDFFC" transform="translate(367,557)"/>
<path d="M0 0 C2.475 0.495 2.475 0.495 5 1 C5 1.66 5 2.32 5 3 C7.31 3.66 9.62 4.32 12 5 C11.34 6.32 10.68 7.64 10 9 C8.8944811 8.06409496 7.79064547 7.12620142 6.6875 6.1875 C6.07261719 5.66542969 5.45773437 5.14335937 4.82421875 4.60546875 C3.14575321 3.12827531 1.56117966 1.59960869 0 0 Z " fill="#6B3BE1" transform="translate(751,493)"/>
<path d="M0 0 C1.17219543 0.78345715 2.33763668 1.57702836 3.5 2.375 C4.47453125 3.03628906 4.47453125 3.03628906 5.46875 3.7109375 C5.9740625 4.13632812 6.479375 4.56171875 7 5 C7 5.66 7 6.32 7 7 C5.125 7.625 5.125 7.625 3 8 C0.4345406 5.4345406 0.45953913 3.52313332 0 0 Z " fill="#652EE6" transform="translate(817,646)"/>
<path d="M0 0 C4.62 1.65 9.24 3.3 14 5 C14 5.33 14 5.66 14 6 C9.18061476 6.23509196 5.53701494 5.45184478 1 4 C0.67 2.68 0.34 1.36 0 0 Z " fill="#6232DB" transform="translate(316,579)"/>
<path d="M0 0 C-1.98 2.31 -3.96 4.62 -6 7 C-6.66 6.67 -7.32 6.34 -8 6 C-7.39816251 3.97954558 -6.72693904 1.97888961 -6 0 C-4 -1 -4 -1 0 0 Z " fill="#622DE0" transform="translate(673,502)"/>
<path d="M0 0 C-1.32 0.33 -2.64 0.66 -4 1 C-4.33 2.32 -4.66 3.64 -5 5 C-7.97 4.505 -7.97 4.505 -11 4 C-7.64918101 0.31409911 -4.96535219 -1.77334007 0 0 Z " fill="#802AB8" transform="translate(917,499)"/>
<path d="M0 0 C1.98 0 3.96 0 6 0 C3.71540242 2.28459758 1.87462656 2.97129748 -1.125 4.125 C-2.03507813 4.47820312 -2.94515625 4.83140625 -3.8828125 5.1953125 C-4.58148437 5.46085937 -5.28015625 5.72640625 -6 6 C-5.67 4.68 -5.34 3.36 -5 2 C-3.35 2 -1.7 2 0 2 C0 1.34 0 0.68 0 0 Z " fill="#6635DD" transform="translate(687,489)"/>
<path d="M0 0 C-6.36363636 5 -6.36363636 5 -11 5 C-10 2 -10 2 -8.3125 0.8125 C-5.45030907 -0.19313465 -3.01172092 -0.13689641 0 0 Z " fill="#612EE0" transform="translate(904,515)"/>
<path d="M0 0 C0.66 0.33 1.32 0.66 2 1 C0.35 1.66 -1.3 2.32 -3 3 C-3 3.66 -3 4.32 -3 5 C-3.99 5 -4.98 5 -6 5 C-6.33 5.66 -6.66 6.32 -7 7 C-7.99 6.34 -8.98 5.68 -10 5 C-8.38007835 4.13624104 -6.75388139 3.28424146 -5.125 2.4375 C-4.22007812 1.96183594 -3.31515625 1.48617188 -2.3828125 0.99609375 C-1.20332031 0.50302734 -1.20332031 0.50302734 0 0 Z " fill="#F1E2FD" transform="translate(470,488)"/>
<path d="M0 0 C0.99 0 1.98 0 3 0 C1.73058503 3.91402949 0.48832306 5.79072873 -3 8 C-3.33 6.68 -3.66 5.36 -4 4 C-2.68 3.67 -1.36 3.34 0 3 C0 2.01 0 1.02 0 0 Z " fill="#6C3AE1" transform="translate(368,551)"/>
<path d="M0 0 C-4.95 2.475 -4.95 2.475 -10 5 C-10.66 4.01 -11.32 3.02 -12 2 C-10.56656 1.46809459 -9.12804633 0.94984742 -7.6875 0.4375 C-6.48673828 0.00244141 -6.48673828 0.00244141 -5.26171875 -0.44140625 C-3 -1 -3 -1 0 0 Z " fill="#6130DD" transform="translate(924,506)"/>
<path d="M0 0 C2.99324263 1.0975223 3.84610901 1.67682892 5.25 4.625 C5.4975 5.40875 5.745 6.1925 6 7 C6.66 7 7.32 7 8 7 C7.67 8.32 7.34 9.64 7 11 C5.83051998 9.35616456 4.6644855 7.70987731 3.5 6.0625 C2.8503125 5.14597656 2.200625 4.22945313 1.53125 3.28515625 C0 1 0 1 0 0 Z " fill="#6232DB" transform="translate(763,502)"/>
<path d="M0 0 C-0.33 0.99 -0.66 1.98 -1 3 C-4.63 3.33 -8.26 3.66 -12 4 C-9.82844492 1.82844492 -8.90426105 1.54767811 -6 0.875 C-5.29875 0.70742188 -4.5975 0.53984375 -3.875 0.3671875 C-2 0 -2 0 0 0 Z " fill="#6939DD" transform="translate(508,582)"/>
<path d="M0 0 C0.66 0.99 1.32 1.98 2 3 C1.34 3 0.68 3 0 3 C-0.103125 3.763125 -0.20625 4.52625 -0.3125 5.3125 C-1.04364039 8.17059424 -1.76951913 9.15742885 -4 11 C-4.66 10.67 -5.32 10.34 -6 10 C-5.65066406 9.44570313 -5.30132813 8.89140625 -4.94140625 8.3203125 C-4.48636719 7.59585938 -4.03132812 6.87140625 -3.5625 6.125 C-3.11003906 5.40570312 -2.65757812 4.68640625 -2.19140625 3.9453125 C-0.97538499 2.0222453 -0.97538499 2.0222453 0 0 Z " fill="#6E3EDB" transform="translate(771,555)"/>
<path d="M0 0 C0.66 0 1.32 0 2 0 C0.55922954 3.36179774 -1.24750021 5.59156268 -4 8 C-4.66 8 -5.32 8 -6 8 C-5.67 6.68 -5.34 5.36 -5 4 C-4.01 4 -3.02 4 -2 4 C-2 3.34 -2 2.68 -2 2 C-1.34 2 -0.68 2 0 2 C0 1.34 0 0.68 0 0 Z " fill="#6636DA" transform="translate(507,551)"/>
<path d="M0 0 C0.33 0 0.66 0 1 0 C1.33 3.3 1.66 6.6 2 10 C2.99 10.33 3.98 10.66 5 11 C4.01 12.485 4.01 12.485 3 14 C-0.53286034 9.43672206 -0.32374517 5.50366792 0 0 Z " fill="#F4E4FD" transform="translate(377,569)"/>
<path d="M0 0 C0.33 0.66 0.66 1.32 1 2 C1.66 2 2.32 2 3 2 C3 2.66 3 3.32 3 4 C-0.63 4 -4.26 4 -8 4 C-8 3.67 -8 3.34 -8 3 C-7.236875 2.87625 -6.47375 2.7525 -5.6875 2.625 C-2.79732864 2.11897208 -2.79732864 2.11897208 0 0 Z " fill="#8052F1" transform="translate(493,482)"/>
<path d="M0 0 C2.75 -0.25 2.75 -0.25 6 0 C8.375 2 8.375 2 10 4 C9.01 4.495 9.01 4.495 8 5 C6.0546875 4.22265625 6.0546875 4.22265625 3.875 3.0625 C3.15054688 2.68222656 2.42609375 2.30195313 1.6796875 1.91015625 C1.12539063 1.60980469 0.57109375 1.30945313 0 1 C0 0.67 0 0.34 0 0 Z " fill="#EADAFD" transform="translate(918,453)"/>
<path d="M0 0 C-0.66 0.66 -1.32 1.32 -2 2 C-4.625 1.625 -4.625 1.625 -7 1 C-7 1.66 -7 2.32 -7 3 C-8.32 3 -9.64 3 -11 3 C-11 2.34 -11 1.68 -11 1 C-3.375 -1.125 -3.375 -1.125 0 0 Z " fill="#6128E5" transform="translate(753,580)"/>
<path d="M0 0 C1.98 1.65 3.96 3.3 6 5 C5.67 5.66 5.34 6.32 5 7 C2 6 2 6 0 4 C0 2.68 0 1.36 0 0 Z " fill="#622DDE" transform="translate(671,568)"/>
<path d="M0 0 C1.4835001 0.42257276 2.96176424 0.86356322 4.4375 1.3125 C5.67306641 1.67794922 5.67306641 1.67794922 6.93359375 2.05078125 C7.61550781 2.36402344 8.29742187 2.67726563 9 3 C9.33 3.99 9.66 4.98 10 6 C5.56909529 4.79157144 3.01887244 3.48331435 0 0 Z " fill="#6F42DC" transform="translate(330,558)"/>
<path d="M0 0 C0.66 0.33 1.32 0.66 2 1 C1.04956626 2.33897583 0.08940853 3.67105427 -0.875 5 C-1.40867187 5.7425 -1.94234375 6.485 -2.4921875 7.25 C-3.23855469 8.11625 -3.23855469 8.11625 -4 9 C-4.66 9 -5.32 9 -6 9 C-4.68775452 5.06326356 -3.08089673 2.77280706 0 0 Z " fill="#F0E0FE" transform="translate(822,311)"/>
<path d="M0 0 C0.66 0 1.32 0 2 0 C2.33 1.65 2.66 3.3 3 5 C2.01 5 1.02 5 0 5 C-0.66 5.66 -1.32 6.32 -2 7 C-2.33 6.01 -2.66 5.02 -3 4 C-1.6875 1.8125 -1.6875 1.8125 0 0 Z " fill="#5F27E8" transform="translate(300,560)"/>
<path d="M0 0 C0.66 0.33 1.32 0.66 2 1 C1.01 2.485 1.01 2.485 0 4 C-3.625 4.6875 -3.625 4.6875 -7 5 C-4.63707344 2.47411298 -3.33537489 1.11179163 0 0 Z " fill="#872DAE" transform="translate(924,493)"/>
<path d="M0 0 C0.66 0.33 1.32 0.66 2 1 C1 3 1 3 -1.3125 4.1875 C-4.19075776 5.05767095 -5.21381365 4.83763812 -8 4 C-6.71349294 3.30289269 -5.42059335 2.61757124 -4.125 1.9375 C-3.40570312 1.55464844 -2.68640625 1.17179687 -1.9453125 0.77734375 C-1.30335938 0.52082031 -0.66140625 0.26429688 0 0 Z " fill="#8A2DA9" transform="translate(934,488)"/>
<path d="M0 0 C-0.66 1.32 -1.32 2.64 -2 4 C-3.98 4 -5.96 4 -8 4 C-4.5 0 -4.5 0 0 0 Z " fill="#7523C8" transform="translate(946,484)"/>
<path d="M0 0 C-0.66 1.65 -1.32 3.3 -2 5 C-3.65 4.67 -5.3 4.34 -7 4 C-3.17391304 0 -3.17391304 0 0 0 Z " fill="#612DE1" transform="translate(636,473)"/>
<path d="M0 0 C2.31 0.33 4.62 0.66 7 1 C7 1.99 7 2.98 7 4 C7.66 4.33 8.32 4.66 9 5 C8.01 5.33 7.02 5.66 6 6 C2.8125 3.625 2.8125 3.625 0 1 C0 0.67 0 0.34 0 0 Z " fill="#6A35E0" transform="translate(895,349)"/>
<path d="M0 0 C-2.62198774 2.15377564 -4.64404172 3.40072174 -8 4 C-8 3.01 -8 2.02 -8 1 C-5.29120665 -0.35439668 -2.99066732 -0.06501451 0 0 Z " fill="#E45A34" transform="translate(912,499)"/>
<path d="M0 0 C0.33 0 0.66 0 1 0 C1 3.3 1 6.6 1 10 C-0.32 10.33 -1.64 10.66 -3 11 C-2.690625 10.484375 -2.38125 9.96875 -2.0625 9.4375 C-0.70940713 6.33334577 -0.38640576 3.34884993 0 0 Z " fill="#6B3DDC" transform="translate(270,471)"/>
<path d="M0 0 C5.75 1.75 5.75 1.75 8 4 C6.02 4 4.04 4 2 4 C1.34 2.68 0.68 1.36 0 0 Z " fill="#612DDC" transform="translate(916,453)"/>
</svg>
