<?xml version="1.0" encoding="UTF-8"?>
<svg version="1.1" xmlns="http://www.w3.org/2000/svg" width="241" height="210">
<path d="M0 0 C79.53 0 159.06 0 241 0 C241 69.3 241 138.6 241 210 C161.47 210 81.94 210 0 210 C0 140.7 0 71.4 0 0 Z " fill="#33147D" transform="translate(0,0)"/>
<path d="M0 0 C79.53 0 159.06 0 241 0 C241 11.22 241 22.44 241 34 C161.47 34 81.94 34 0 34 C0 22.78 0 11.56 0 0 Z " fill="#402C6E" transform="translate(0,0)"/>
<path d="M0 0 C79.53 0 159.06 0 241 0 C241 2.31 241 4.62 241 7 C161.47 7 81.94 7 0 7 C0 4.69 0 2.38 0 0 Z " fill="#442977" transform="translate(0,0)"/>
<path d="M0 0 C79.53 0 159.06 0 241 0 C241 0.99 241 1.98 241 3 C217.33345161 3.2032599 193.66679062 3.38977476 170 3.5625 C169.12809226 3.56888284 168.25618451 3.57526568 167.35785532 3.58184195 C123.04744353 3.90528544 78.7468644 4.17963651 34.4375 3.5625 C33.51618286 3.54968616 32.59486572 3.53687233 31.64562988 3.5236702 C21.09660139 3.37477353 10.5481167 3.2039693 0 3 C0 2.01 0 1.02 0 0 Z " fill="#332454" transform="translate(0,34)"/>
<path d="M0 0 C79.53 0 159.06 0 241 0 C241 0.99 241 1.98 241 3 C161.47 3 81.94 3 0 3 C0 2.01 0 1.02 0 0 Z " fill="#6144A7" transform="translate(0,31)"/>
<path d="M0 0 C79.53 0 159.06 0 241 0 C241 0.99 241 1.98 241 3 C161.47 3 81.94 3 0 3 C0 2.01 0 1.02 0 0 Z " fill="#6548A4" transform="translate(0,11)"/>
<path d="M0 0 C79.53 0 159.06 0 241 0 C241 0.99 241 1.98 241 3 C161.47 3 81.94 3 0 3 C0 2.01 0 1.02 0 0 Z " fill="#27114E" transform="translate(0,0)"/>
<path d="M0 0 C79.53 0 159.06 0 241 0 C241 0.99 241 1.98 241 3 C161.47 3 81.94 3 0 3 C0 2.01 0 1.02 0 0 Z " fill="#5D3FA6" transform="translate(0,23)"/>
</svg>
