
<svg xmlns="http://www.w3.org/2000/svg" version="1.1" width="241px" height="210px" style="shape-rendering:geometricPrecision; text-rendering:geometricPrecision; image-rendering:optimizeQuality; fill-rule:evenodd; clip-rule:evenodd" xmlns:xlink="http://www.w3.org/1999/xlink">
<g><path style="opacity:1" fill="#6020f9" d="M -0.5,-0.5 C 79.8333,-0.5 160.167,-0.5 240.5,-0.5C 240.5,69.5 240.5,139.5 240.5,209.5C 160.167,209.5 79.8333,209.5 -0.5,209.5C -0.5,139.5 -0.5,69.5 -0.5,-0.5 Z"/></g>
<g><path style="opacity:1" fill="#faf8fe" d="M 187.5,80.5 C 187.44,79.9569 187.107,79.6236 186.5,79.5C 185.5,99.4889 185.167,119.489 185.5,139.5C 183.521,142.947 181.021,143.28 178,140.5C 177.333,116.5 177.333,92.5 178,68.5C 179.599,66.9644 181.433,66.4644 183.5,67C 189.757,71.7127 195.924,76.546 202,81.5C 202.83,87.5276 202.664,93.5276 201.5,99.5C 199.5,98.5 197.5,97.5 195.5,96.5C 194.675,92.8776 194.175,89.211 194,85.5C 192.074,83.4611 189.907,81.7945 187.5,80.5 Z"/></g>
<g><path style="opacity:1" fill="#7b4ff9" d="M 187.5,80.5 C 186.833,100.167 186.167,119.833 185.5,139.5C 185.167,119.489 185.5,99.4889 186.5,79.5C 187.107,79.6236 187.44,79.9569 187.5,80.5 Z"/></g>
<g><path style="opacity:1" fill="#f7f4fd" d="M 42.5,96.5 C 48.3674,96.0671 53.5341,97.7338 58,101.5C 58.8542,103.607 58.1875,104.941 56,105.5C 51.7091,101.769 46.8758,100.769 41.5,102.5C 40.1667,104.167 40.1667,105.833 41.5,107.5C 46.5562,109.181 51.5562,111.014 56.5,113C 59.3492,115.559 60.1825,118.726 59,122.5C 57.8906,124.815 56.0573,126.315 53.5,127C 46.1933,128.692 39.6933,127.192 34,122.5C 33.51,121.207 33.3433,119.873 33.5,118.5C 37.9897,119.986 42.4897,121.653 47,123.5C 49.1509,123.227 51.1509,122.561 53,121.5C 53.7203,119.888 53.5536,118.388 52.5,117C 48.6079,115.36 44.6079,114.027 40.5,113C 35.0552,110.89 33.2219,107.056 35,101.5C 37.1699,99.1769 39.6699,97.5103 42.5,96.5 Z"/></g>
<g><path style="opacity:1" fill="#f7f4fe" d="M 123.5,97.5 C 125.144,97.2865 126.644,97.6198 128,98.5C 128.667,107.833 128.667,117.167 128,126.5C 126.333,127.833 124.667,127.833 123,126.5C 122.194,116.756 122.361,107.089 123.5,97.5 Z"/></g>
<g><path style="opacity:1" fill="#f6f2fc" d="M 133.5,97.5 C 138.123,96.4082 139.956,98.0748 139,102.5C 133.42,104.752 131.587,103.085 133.5,97.5 Z"/></g>
<g><path style="opacity:1" fill="#f45b18" d="M 191.5,97.5 C 196.757,99.4617 201.757,101.962 206.5,105C 201.588,107.372 196.755,109.872 192,112.5C 191.501,107.511 191.334,102.511 191.5,97.5 Z"/></g>
<g><path style="opacity:1" fill="#f4f0fd" d="M 65.5,105.5 C 67.1439,105.286 68.6439,105.62 70,106.5C 70.3333,111.167 70.6667,115.833 71,120.5C 74.6631,123.333 77.9965,123 81,119.5C 81.3333,115.167 81.6667,110.833 82,106.5C 83.3876,105.446 84.8876,105.28 86.5,106C 87.6445,112.752 87.8112,119.586 87,126.5C 84.2242,128.14 82.2242,127.473 81,124.5C 74.5967,129.157 69.2634,128.157 65,121.5C 64.2185,116.083 64.3852,110.75 65.5,105.5 Z"/></g>
<g><path style="opacity:1" fill="#f6f2fd" d="M 93.5,105.5 C 95.9806,105.323 97.8139,106.323 99,108.5C 105.189,104.192 110.856,104.859 116,110.5C 119.52,120.308 116.187,125.975 106,127.5C 103.53,127.66 101.364,126.993 99.5,125.5C 98.6735,129.459 98.1735,133.459 98,137.5C 96.3333,138.833 94.6667,138.833 93,137.5C 92.1917,126.757 92.3583,116.09 93.5,105.5 Z"/></g>
<g><path style="opacity:1" fill="#f4f1fe" d="M 134.5,105.5 C 136.39,105.297 137.89,105.963 139,107.5C 139.667,113.833 139.667,120.167 139,126.5C 137.333,127.833 135.667,127.833 134,126.5C 133.205,119.42 133.372,112.42 134.5,105.5 Z"/></g>
<g><path style="opacity:1" fill="#f5f1fd" d="M 152.5,105.5 C 158.731,104.853 163.898,106.853 168,111.5C 170.737,119.194 168.237,124.36 160.5,127C 149.225,129.15 143.725,124.65 144,113.5C 145.73,109.57 148.564,106.903 152.5,105.5 Z"/></g>
<g><path style="opacity:1" fill="#f7f4fe" d="M 201.5,109.5 C 202.659,119.992 202.825,130.659 202,141.5C 199.408,142.982 197.075,142.648 195,140.5C 194.333,131.5 194.333,122.5 195,113.5C 197.314,112.267 199.481,110.933 201.5,109.5 Z"/></g>
<g><path style="opacity:1" fill="#5f1ff9" d="M 101.5,110.5 C 110.522,109.833 113.189,113.5 109.5,121.5C 101.482,124.427 97.9818,121.76 99,113.5C 99.6979,112.309 100.531,111.309 101.5,110.5 Z"/></g>
<g><path style="opacity:1" fill="#6121f9" d="M 152.5,110.5 C 158.183,109.169 161.849,111.169 163.5,116.5C 161.973,122.19 158.306,124.024 152.5,122C 148.542,118.215 148.542,114.382 152.5,110.5 Z"/></g>
</svg>
